<?xml version="1.0" standalone="no"?>
<!DOCTYPE svg PUBLIC "-//W3C//DTD SVG 1.1//EN" "http://www.w3.org/Graphics/SVG/1.1/DTD/svg11.dtd" >
<svg>
<metadata>
Created by FontForge 20110222 at Thu Oct 16 06:17:13 2014
 By Nassar Zeitoune,,,
(c)copyright - 1998 - Daniel Steven Smith
</metadata>
<defs>
<font id="TengwarQuenya" horiz-adv-x="2" >
  <font-face 
    font-family="Tengwar Quenya"
    font-weight="400"
    font-stretch="normal"
    units-per-em="2048"
    panose-1="2 11 5 0 0 0 0 0 0 0"
    ascent="1638"
    descent="-410"
    x-height="999"
    cap-height="1020"
    bbox="-1737 -1397 2353 1993"
    underline-thickness="50"
    underline-position="-75"
    unicode-range="U+000E-2219"
  />
<missing-glyph horiz-adv-x="1536" 
d="M256 0v1280h1024v-1280h-1024zM1247 33v1214h-958v-1214h958z" />
    <glyph glyph-name=".notdef" horiz-adv-x="1536" 
d="M256 0v1280h1024v-1280h-1024zM1247 33v1214h-958v-1214h958z" />
    <glyph glyph-name=".null" horiz-adv-x="0" 
 />
    <glyph glyph-name="nonmarkingreturn" horiz-adv-x="0" 
 />
    <glyph glyph-name="SO" horiz-adv-x="0" 
 />
    <glyph glyph-name="space" unicode=" " horiz-adv-x="614" 
 />
    <glyph glyph-name="exclam" unicode="!" horiz-adv-x="1331" 
d="M1260 539q0 -103 -37 -201q-39 -100 -111 -174q-55 -60 -119 -96q-63 -37 -135 -54q-76 -16 -164 -16l47 25l117 65l68 70q96 106 96 286q0 213 -123 332q-100 103 -244 105q-98 -2 -235 -117l-2 -1288l2 -92l20 -50l68 -8l72 33l24 -29l-184 -90l-170 -76h-47v2335
l-4 86l-21 49l-67 8l-72 -32l-25 28l187 91l168 77h49l2 -960q106 88 170 115q82 34 184 34q199 0 340 -135q146 -131 146 -321z" />
    <glyph glyph-name="quotedbl" unicode="&#x22;" 
d="M-1692 -322l66 123h1417l-57 -123h-1426z" />
    <glyph glyph-name="numbersign" unicode="#" 
d="M-729 1432q0 -43 -31 -74q-33 -33 -76 -33q-41 0 -73.5 33t-32.5 74t33 73q32 33 73 33q43 0 76 -31q31 -32 31 -75zM-1040 1432q0 -43 -31 -74q-33 -33 -76 -33q-41 0 -72 33q-32 31 -32 74q0 41 30 73q31 33 74 33t76 -31q31 -32 31 -75zM-881 1681q0 -43 -30 -73
q-33 -33 -76 -33q-41 0 -72 33q-33 30 -33 73q0 41 31 74t74 33t76 -31q30 -33 30 -76z" />
    <glyph glyph-name="dollar" unicode="$" 
d="M-729 1626q0 -31 -25 -57q-16 -19 -61 -47l-307 -195h-86l295 297q30 31 63 50.5t66 19.5q16 0 35.5 -23.5t19.5 -44.5z" />
    <glyph glyph-name="percent" unicode="%" 
d="M-879 1432q0 -43 -30 -74q-33 -33 -76 -33q-41 0 -72 33q-33 31 -33 74q0 41 31 73q31 33 74 33t76 -31q30 -32 30 -75z" />
    <glyph glyph-name="ampersand" unicode="&#x26;" 
d="M-770 1743q41 -37 41 -103q0 -53 -31 -104q-26 -37 -74 -76q-47 -41 -110 -76q-66 -36 -141 -65l-21 37q96 55 152 106q53 49 90 109q14 31 14 59q0 41 -22 62q-19 18 -52 18q-28 0 -65 -12l-21 24q29 31 45 45q19 15 52 21q94 0 143 -45z" />
    <glyph glyph-name="quotesingle" unicode="'" 
d="M-1032 -326l65 123h803l-57 -123h-811z" />
    <glyph glyph-name="parenleft" unicode="(" 
d="M-846 -537q0 -43 -31 -73q-32 -33 -75 -33q-41 0 -72 33q-33 30 -33 73q0 41 31 74t74 33t75 -31q31 -33 31 -76z" />
    <glyph glyph-name="parenright" unicode=")" 
d="M-207 1972q-12 -26 -43 -84q-29 -57 -72 -106q-43 -51 -110 -84q-70 -33 -166 -33q-137 0 -303 68q-92 39 -176 57t-158 18q-90 0 -176 -22q-86 -25 -260 -86q125 149 245.5 221t262.5 72q112 0 262 -47q129 -41 174 -56q45 -14 104 -26q60 -13 105 -13q72 0 145 29
q74 29 166 92z" />
    <glyph glyph-name="asterisk" unicode="*" horiz-adv-x="1434" 
d="M1280 1888q-18 0 -68 -2q-51 0 -92 -4t-84 -8q-43 -6 -78 -19q-180 -57 -278 -126q-55 -37 -88 -74q-35 -35 -84 -103q-68 -92 -111 -217q-41 -121 -57 -241q-18 -123 -18 -246q0 -92 14 -178q18 -88 49 -168q35 -82 86 -154q76 -94 217 -158q139 -61 275 -61
q120 0 204 51q93 78 93 219q0 72 -31 144q-25 69 -76 127q-53 55 -131 92q-80 33 -174 33q-90 0 -199 -33q41 110 137 172q91 59 207 59q62 0 125 -18q60 -19 115 -57q55 -37 100 -95q76 -110 76 -276q0 -111 -39 -217q-41 -109 -123 -189q-82 -78 -203 -110
q-104 -31 -237 -31q-109 0 -223 23q-111 22 -187 63q-110 59 -192 190q-70 109 -84 252q-10 119 -10 211q0 135 20 224q41 186 115 340q47 98 88 172q41 71 76 114q49 60 100 101q47 41 121 88q114 73 270 118q66 19 229 23q101 0 144 -2z" />
    <glyph glyph-name="plus" unicode="+" horiz-adv-x="410" 
d="M-571 0l174 90l108 119q43 0 295 -10q139 -7 227.5 -61.5t127 -136.5t38.5 -175q0 -95 -30 -166q-45 -106 -128 -160.5t-178 -54.5q-107 0 -185.5 64t-78.5 169q0 14 4 48l156 98q-4 -17 -4 -47q0 -60 27.5 -107.5t71 -74.5t91.5 -27t86 32.5t52 96.5q4 20 4 35
q0 100 -104 184t-345 84h-409z" />
    <glyph glyph-name="comma" unicode="," horiz-adv-x="1434" 
d="M543 918q-82 0 -146 -25q-92 -41 -125 -72q-61 -53 -79 -98q-13 -31 -19 -59q-6 -31 -12 -50q0 -221 231 -241l-155 -127q-103 18 -146 90q-47 72 -47 172q0 43 6 84q25 88 49 133q25 45 68 94q88 99 188 146q113 53 269 67q88 4 102 4q121 0 227 -28q109 -31 205 -97
q58 -34 103 -86q43 -49 70.5 -108.5t27.5 -118.5q-8 -115 -41 -188q-33 -72 -100 -123q-66 -54 -193 -111q51 -22 103.5 -59t93.5 -84q43 -49 67 -107q27 -53 27 -112q0 -43 -10 -76q-111 -361 -867 -590l-12 16q178 68 295 156q117 90 172 188q55 99 63 201
q-12 121 -108 213q-96 94 -279 164q439 94 482 430q-13 123 -70 205q-49 74 -154 127q-135 70 -286 70z" />
    <glyph glyph-name="hyphen" unicode="-" horiz-adv-x="573" 
d="M399 838q0 -43 -30 -74q-33 -33 -76 -33q-41 0 -74 33t-33 74t33 73q33 33 74 33q43 0 76 -31q30 -32 30 -75zM389 106q0 -43 -31 -73q-32 -33 -75 -33q-41 0 -74 33t-33 73q0 41 33 74t74 33q43 0 74.5 -31.5t31.5 -75.5z" />
    <glyph glyph-name="period" unicode="." horiz-adv-x="1178" 
d="M641 942q260 0 416 -158q133 -135 133 -309q0 -123 -74 -250q-72 -125 -203 -188q-127 -66 -286 -66q-258 0 -412 166q-127 139 -127 312q0 126 76 251q80 123 207 185q127 57 270 57zM602 879q-67 0 -133 -31q-68 -33 -109 -113q-41 -78 -41 -203q0 -198 101 -344
q98 -145 262 -145q119 0 199 80q77 80 77 274q0 244 -131 385q-88 97 -225 97z" />
    <glyph glyph-name="slash" unicode="/" 
d="M-156 -565q-100 -262 -276 -262q-55 0 -129 28q-47 21 -74 31q-24 12 -51 19.5t-59 7.5q-99 0 -285 -99q22 68 100 168q76 101 219 101q76 0 170 -47q92 -48 156 -48q49 0 104 25q56 25 125 76z" />
    <glyph glyph-name="zero" unicode="0" 
d="M-184 1966q-49 -129 -117 -194q-68 -68 -160 -68q-57 0 -129 29q-35 16 -67 28q-33 15 -60 23q-26 6 -57 6q-98 0 -285 -98q10 30 43 90q35 59 106.5 118.5t170.5 59.5q80 0 170 -47t155 -47q95 0 230 100z" />
    <glyph glyph-name="one" unicode="1" horiz-adv-x="1331" 
d="M719 0l47 25l117 65l69 68q95 108 95 288q0 213 -119 332q-103 103 -246 103q-121 0 -231 -95v-1310l2 -86l20 -49l68 -9l71 33l25 -29l-186 -90l-168 -77h-50v1421q0 162 -6 198q-4 39 -30 56q-23 16 -56 16q-22 0 -92 -18l-16 37l358 118h60v-137q81 70 163 103
q82 34 185 34q200 0 344 -135q145 -133 145 -332q0 -204 -149 -364q-58 -62 -121 -96q-64 -37 -137 -54q-74 -16 -162 -16z" />
    <glyph glyph-name="two" unicode="2" horiz-adv-x="1946" 
d="M1194 852q133 -133 133 -322q0 -204 -149 -364q-58 -62 -121 -96q-64 -37 -137 -54q-74 -16 -162 -16l47 25l117 65l69 68q94 108 94 288q0 213 -120 332q-103 103 -246 103q-119 0 -230 -95v-1294l3 -86l20 -49l68 -8l71 33l25 -29l-187 -90l-170 -78h-47v1405
q0 127 -6 198q-4 39 -30 56q-23 16 -56 16q-24 0 -92 -18l-16 37l358 118h59v-137q82 70 164 103q82 34 185 34q172 0 301 -100q55 41 123 70q81 34 184 34q201 0 344 -135q145 -133 145 -331q0 -205 -147 -365q-57 -61 -121 -96q-63 -37 -137 -54q-74 -16 -162 -16l45 25
l119 65l67 68q97 108 97 289q0 213 -121 331q-102 103 -246 103q-69 0 -135 -33z" />
    <glyph glyph-name="three" unicode="3" horiz-adv-x="1331" 
d="M420 0h-314l5 39l92 51v1407l-2 92l-23 49l-65 9l-74 -33l-25 28l189 91l172 75h47v-948q82 70 166 103q82 34 184 34q203 0 346 -135q148 -133 148 -332q0 -204 -150 -364q-57 -60 -121 -96q-63 -37 -139 -54q-76 -16 -164 -16l47 25l119 65l70 68q96 108 96 288
q0 213 -123 332q-102 103 -248 103q-121 0 -229 -93z" />
    <glyph glyph-name="four" unicode="4" horiz-adv-x="1946" 
d="M449 0h-302v41l84 47v1407l-2 92l-20 47l-68 8l-71 -32l-25 30l186 91l168 77l47 -2v-960q58 47 99 76q41 26 73 41q82 32 185 32q174 0 307 -102q72 53 117 74q82 32 184 32q201 0 344 -133q143 -135 143 -331v-5v-4q0 -202 -149 -356q-82 -90 -184 -129
q-103 -41 -236 -41l49 27l115 63l70 72q94 106 96 287q0 213 -125 331q-94 103 -238 105q-61 0 -143 -35q135 -131 135 -320v-4v-4q0 -203 -147 -360q-80 -86 -183 -125q-102 -39 -237 -39l47 22l117 66l67 70q97 108 99 288q0 213 -125 330q-97 105 -240 107
q-119 -2 -237 -99v-782z" />
    <glyph glyph-name="five" unicode="5" horiz-adv-x="1946" 
d="M457 0h-303v41l84 47v502q0 137 -5 198q-6 39 -32 56q-23 16 -56 16q-24 0 -94 -18l-14 37l360 118h60v-137q84 70 166 103q82 34 186 34q172 0 303 -100q53 41 125 70q82 34 184 34q203 0 346 -135q148 -133 148 -331q0 -205 -150 -365q-55 -59 -118 -96
q-66 -37 -140 -54q-75 -16 -166 -16l48 25l118 65l70 68q96 108 96 289q0 213 -123 331q-102 103 -247 103q-70 0 -136 -33q133 -129 133 -322q0 -204 -149 -364q-57 -62 -121 -96q-63 -37 -137 -54q-78 -16 -166 -16l47 25l119 65l70 68q96 108 96 288q0 213 -121 332
q-104 103 -248 103q-123 0 -233 -95v-786z" />
    <glyph glyph-name="six" unicode="6" horiz-adv-x="1331" 
d="M426 0h-307v41l90 45v504q0 162 -6 198q-4 39 -31 56q-22 16 -55 16q-15 0 -70 -14l-16 37l336 114h59v-137q82 70 164 103q82 34 184 34q201 0 344 -135q146 -133 146 -332q0 -204 -150 -364q-57 -62 -121 -96q-63 -37 -137 -54q-74 -16 -162 -16l47 25l117 65l70 68
q94 108 94 288q0 213 -119 332q-102 103 -246 103q-120 0 -231 -95v-786z" />
    <glyph glyph-name="seven" unicode="7" horiz-adv-x="1331" 
d="M1186 541l-686 -774q-127 -156 -127 -289q0 -88 61 -183q113 -79 219 -79q133 0 244 125q-18 -78 -68 -140q-47 -59 -118.5 -96t-153.5 -37q-86 0 -168 39q-61 39 -110 102q-50 64 -50 162q0 80 41 172q43 92 142 203l229 258l-420 782l-24 48l-66 8l-74 -35l-24 29
l184 92l92 41h51l70 -62l389 -700l246 276q55 64 55 148q0 71 -35 139q-34 68 -77 94q-80 51 -156 51q-88 0 -211 -67q45 76 131 129q84 53 186 53q125 0 242 -88q78 -76 78 -172q0 -102 -92 -229z" />
    <glyph glyph-name="eight" unicode="8" horiz-adv-x="1434" 
d="M956 133q205 14 297 107q47 57 47 131q0 67 -34 135q-37 63 -95 117q-36 32 -102 59q-63 27 -139 43q-78 16 -146 16q-71 0 -122 -18q90 104 180 147q88 45 172 45q143 0 266 -112q57 -53 90 -141q35 -89 35 -185q0 -182 -119 -315q-125 -82 -237 -119q-115 -41 -265 -43
q-159 0 -286 27q-129 26 -228 96q-192 133 -200 393q0 125 55 248q55 121 168 192l141 95l178 90l179 80l165 90l134 137l86 137l118 268l31 -8l-94 -252l-74 -166l-121 -155l-139 -105l-117 -63l-125 -76l-114 -90q-193 -188 -193 -342q6 -229 193 -365q34 -26 84 -45
q51 -16 106 -26q57 -10 125 -17q64 -6 100 -10z" />
    <glyph glyph-name="nine" unicode="9" horiz-adv-x="1331" 
d="M53 1702l242 141h35l465 -966l385 -682q22 -43 41 -58q16 -14 41 -14q16 0 67 16l10 -33l-225 -106h-57l-455 795l-391 -787l-154 78l129 227l117 -51l287 586l-387 823l-31 27l-49 8l-51 -31z" />
    <glyph glyph-name="colon" unicode=":" 
d="M-211 -109l-43 -86q-29 -55 -72 -104t-110 -84q-70 -33 -166 -33q-135 0 -303 68q-189 76 -334 76q-92 0 -176 -25q-86 -22 -260 -84q84 102 164 168q79 61 163 94q84 31 181 31q116 0 262 -47q129 -41 174 -55.5t106 -24.5q60 -14 103 -14q71 0 145 28q74 29 166 92z
" />
    <glyph glyph-name="semicolon" unicode=";" 
d="M-143 -131q-50 -129 -117.5 -195.5t-159.5 -66.5q-55 0 -129 28q-82 35 -110 48q-29 10 -74 10q-98 0 -285 -99q10 29 43 91q33 59 107 118q71 60 170 60q75 0 170 -47q90 -47 155 -47q94 0 230 100z" />
    <glyph glyph-name="less" unicode="&#x3c;" horiz-adv-x="1331" 
d="M915 199v481q0 61 -43 125q-36 57 -98 86q-61 29 -119 29q-110 0 -196 -80q-56 -52 -92 -154q-39 -102 -39 -190q4 -101 32 -170q27 -72 84 -127h471zM1122 199h176l-190 -199h-1081l155 199h39q-49 47 -76 112q-26 68 -26 142q4 202 155 364q152 166 396 166
q149 0 245 -80l3 748q-7 28 -39 49q-21 12 -50 12q-32 0 -86 -14l-18 35l340 112h57v-1646z" />
    <glyph glyph-name="equal" unicode="=" horiz-adv-x="573" 
d="M395 479q0 -43 -30 -73q-33 -33 -76 -33q-41 0 -74 32.5t-33 73.5t33 74t74 33q43 0 76 -31q30 -33 30 -76z" />
    <glyph glyph-name="greater" unicode="&#x3e;" 
d="M-188 -743q0 -35 -27 -64q-29 -29 -64 -29q-34 0 -61 29q-29 27 -29 64q0 32 27 61t63 29q35 0 64 -27q27 -29 27 -63zM-63 -537q0 -34 -27 -63q-29 -29 -64 -29q-34 0 -61 29q-29 27 -29 63q0 33 27 62t63 29q35 0 64 -27q27 -29 27 -64zM-303 -532q0 -35 -27.5 -64
t-62.5 -29t-62 29q-28 27 -28 64q0 32 26 61q27 29 64 29q35 0 63 -27q27 -29 27 -63z" />
    <glyph glyph-name="question" unicode="?" 
d="M-211 -559q-12 -27 -43 -82q-29 -59 -72 -109.5t-110 -83.5q-70 -32 -166 -32q-137 0 -303 67q-187 76 -334 76q-90 0 -176 -22q-86 -25 -260 -86q125 151 245 223q119 69 263 69q116 0 262 -47q129 -43 174 -55q45 -14 106 -27q60 -12 103 -12q71 0 145 29q76 28 166 92
z" />
    <glyph glyph-name="at" unicode="@" horiz-adv-x="1946" 
d="M1872 535q0 -103 -37 -195q-41 -94 -115 -172q-55 -59 -118.5 -96t-139.5 -54q-76 -16 -164 -16l48 25l118 65l68 70q98 106 100 287q0 213 -125 331q-100 103 -243 105q-58 0 -136 -41q129 -129 129 -314q0 -208 -151 -366q-55 -60 -119 -96q-63 -37 -137 -54
q-76 -16 -166 -16l47 25l119 65l68 70q98 106 100 286q0 213 -123 332q-102 103 -246 105q-102 0 -237 -115v-1282l2 -92l20 -49l68 -9l71 33l27 -29l-188 -90l-174 -75h-45v2328l-3 86l-22 49l-66 9l-73 -33l-25 28l189 91l169 77h50v-960q110 90 170 115q82 32 186 32
q174 0 307 -104q66 51 121 76q82 32 186 32q201 0 342 -135q148 -133 148 -329z" />
    <glyph glyph-name="A" unicode="A" horiz-adv-x="1331" 
d="M80 469q0 205 151 362q54 60 117 97q64 37 136.5 53t162.5 16l-45 -24l-119 -66l-65 -69q-99 -107 -101 -287q0 -213 123 -332q101 -102 244 -104q102 0 236 114v1282l-2 93l-21 49l-68 8l-71 -33l-25 29l187 90l172 76h45v-2329l2 -86l20 -49l68 -8l71 33l25 -29
l-186 -90l-168 -78h-49v960q-111 -92 -170 -114q-82 -33 -185 -33q-198 0 -340 135q-69 66 -106 150q-39 86 -39 184z" />
    <glyph glyph-name="B" unicode="B" 
d="M-170 1430q0 -44 -31 -74q-32 -33 -75 -33q-41 0 -72 33q-33 30 -33 74q0 40 31 73t74 33t74.5 -31.5t31.5 -74.5z" />
    <glyph glyph-name="C" unicode="C" 
d="M-188 1657q0 -35 -27 -64q-29 -28 -64 -28q-34 0 -61 28q-29 27 -29 64q0 33 27 61q27 29 63 29q35 0 64 -27q27 -28 27 -63zM-63 1413q0 -35 -27 -63q-29 -29 -64 -29q-34 0 -61 29q-29 26 -29 63q0 33 27 61.5t63 28.5q35 0 64 -26q27 -29 27 -64zM-303 1417
q0 -35 -27.5 -63.5t-62.5 -28.5t-62 29q-28 26 -28 63q0 33 26 62q27 28 64 28q35 0 63 -26q27 -29 27 -64z" />
    <glyph glyph-name="D" unicode="D" 
d="M-201 1432q0 -43 -30 -74q-33 -33 -76 -33q-41 0 -74 33t-33 74t33 73q33 33 74 33q43 0 76 -31q30 -32 30 -75zM-512 1432q0 -43 -31 -74q-32 -33 -75 -33q-41 0 -72 33q-33 31 -33 74q0 41 31 73q30 33 74 33q43 0 74.5 -31.5t31.5 -74.5zM-352 1681q0 -43 -31 -73
q-33 -33 -76 -33q-41 0 -71 33q-33 30 -33 73q0 41 30.5 74t73.5 33t76 -31q31 -33 31 -76z" />
    <glyph glyph-name="E" unicode="E" 
d="M-360 1432q0 -43 -31 -74q-33 -33 -76 -33q-41 0 -74 33q-32 33 -32 74t32 73q33 33 74 33q43 0 76 -31q31 -32 31 -75zM-672 1432q0 -43 -30 -74q-33 -33 -76 -33q-41 0 -72 33q-33 31 -33 74q0 41 31 73q31 33 74 33t76 -31q30 -32 30 -75zM-512 1681q0 -43 -31 -73
q-32 -33 -75 -33q-41 0 -72 33q-33 30 -33 73q0 41 30.5 74t74.5 33q43 0 75 -31q31 -33 31 -76z" />
    <glyph glyph-name="F" unicode="F" 
d="M-201 1622q0 -31 -24 -57q-17 -19 -62 -47l-307 -195h-86l295 297q31 31 63 51q33 19 66 19q16 0 37 -23q18 -25 18 -45z" />
    <glyph glyph-name="G" unicode="G" 
d="M-352 1436q0 -43 -31 -74q-33 -33 -76 -33q-41 0 -71 33q-33 31 -33 74q0 41 31 73q30 33 73 33t76 -31q31 -32 31 -75z" />
    <glyph glyph-name="H" unicode="H" 
d="M-711 1325q54 164 101 246q47 80 137 153q53 31 106 31q66 0 125 -53q23 -19 31 -47q8 -33 8 -86q-6 -27 -30 -66q-27 -39 -29 -41l-29 19q2 14 2 41q0 45 -20 71q-21 23 -58 23q-32 0 -63 -21q-45 -28 -113 -106q-65 -78 -116 -178z" />
    <glyph glyph-name="I" unicode="I" horiz-adv-x="1434" 
d="M1401 496q0 -250 -35 -445q-31 -194 -96 -332q-64 -139 -160 -229q-29 -29 -68 -55q-38 -29 -96.5 -64t-97.5 -59q-60 -37 -119 -64q-59 -24 -182 -71q-174 -58 -285 -58l-4 33q127 6 270 66q117 53 160 73q43 21 103 62q26 20 75 53q47 35 82 62q33 28 60 57
q86 94 110 166q86 264 86 475q0 141 -39 268q-37 127 -116 238q-74 94 -211.5 154.5t-272.5 60.5q-123 0 -205 -51q-88 -80 -88 -218q0 -96 47 -188q50 -90 142 -149q92 -58 219 -58q96 0 199 35q-43 -115 -136 -174q-96 -61 -206 -61q-95 0 -183 43q-90 43 -155 127
q-76 110 -76 280v25q0 10 -2 20q0 346 358 467q137 35 264 35q82 0 160 -14.5t143.5 -39t118.5 -61.5q56 -37 92 -82q129 -143 144 -327z" />
    <glyph glyph-name="J" unicode="J" 
d="M-242 1743q41 -37 41 -103q0 -51 -30 -104q-43 -59 -125 -117q-80 -55 -197 -100l-25 37q101 57 152 104q49 47 90 111q14 31 14 59q0 41 -22 62q-18 18 -51 18q-29 0 -66 -12l-20 24q24 29 45 45q18 15 51 21q94 0 143 -45z" />
    <glyph glyph-name="K" unicode="K" horiz-adv-x="1434" 
d="M672 1757q-133 -78 -193 -172q-28 -41 -37.5 -94t-9.5 -119q8 -82 57 -158q48 -75 129 -141q80 -63 177 -102q-80 -23 -150 -60q-70 -34 -125 -88q-57 -55 -98 -129q-39 -76 -60 -172q35 -362 472 -389q16 -2 51 -2q106 0 198 39q91 37 138 104q55 82 55 160
q0 70 -41 125q-39 55 -90 84q-49 31 -101 45q-53 17 -116 17q-8 0 -70 -5q35 91 100 129q66 41 146 41q104 0 164 -47q69 -51 102 -123q37 -71 37 -153q0 -121 -66 -244q-41 -80 -118 -145q-80 -66 -191 -107q-106 -41 -229 -45q-33 -2 -98 -2q-273 0 -453 117
q-88 59 -150 145q-57 88 -57 174q0 162 78 271q74 106 244 178q-107 49 -170 135q-62 86 -62 197q0 49 12 102q25 94 91 176q10 10 38 51q29 41 54 70q24 27 55 47q139 92 250 143q31 17 72 31q38 17 65 23t68 14t73 14q115 25 361 25l6 -29q-203 -6 -313 -28
q-105 -23 -164 -41q-64 -21 -131 -62z" />
    <glyph glyph-name="L" unicode="L" 
d="M-446 297q0 -43 -31 -74q-33 -33 -76 -33q-41 0 -72 33q-32 31 -32 74q0 41 30 74q31 32 74 32t76 -30q31 -33 31 -76z" />
    <glyph glyph-name="M" unicode="M" 
d="M-119 1702q43 -39 43 -111q0 -53 -30 -106q-41 -55 -91 -84q-49 -29 -180 -78l-20 33q98 57 133 88q33 31 69 88q15 31 15 51q0 31 -23 49q-26 25 -67 25q-23 0 -58 -10l-20 24q24 29 42.5 41t51.5 19q21 4 35 4q6 0 10 -2q55 0 90 -31z" />
    <glyph glyph-name="N" unicode="N" 
d="M-397 1325q39 139 72.5 215t91.5 127q32 29 67 41q37 14 88 14q35 -6 55 -34q21 -29 21 -74q-2 -41 -12 -70q-11 -26 -35 -59l-29 20q12 37 12 47q0 19 -12 33q-16 21 -41 21q-22 0 -57 -23q-33 -18 -64 -74q-32 -55 -104 -198z" />
    <glyph glyph-name="O" unicode="O" 
d="M-535 -532q0 -43 -30 -74q-33 -33 -76 -33q-41 0 -72 33q-32 31 -32 74q0 40 30 73q31 33 74 33t76 -31q30 -32 30 -75z" />
    <glyph glyph-name="P" unicode="P" 
d="M-215 1382q-12 -26 -41 -82q-31 -59 -74 -108q-43 -51 -110 -84q-70 -33 -166 -33q-137 0 -303 68q-187 76 -334 76q-90 0 -176 -23q-86 -25 -260 -86q63 78 120 131q60 51 121 90q64 37 129 55q66 17 138 17q114 0 262 -47q129 -43 174 -56.5t105.5 -25.5t103.5 -12
q71 0 145 28q76 29 166 92z" />
    <glyph glyph-name="Q" unicode="Q" horiz-adv-x="1331" 
d="M922 164q96 100 98 282q-2 216 -125 338q-98 103 -242 105q-106 -4 -237 -119v-606h506zM1257 530q0 -208 -151 -366l229 2l-129 -166h-790v-526l4 -92l20 -50l68 -8l72 33l24 -27l-184 -94l-170 -74h-47l2 2351l-4 89l-23 49l-67 8l-72 -33l-25 29l187 90l168 78h49
v-971q114 94 170 119q82 35 184 35h4q197 0 336 -140q145 -135 145 -336z" />
    <glyph glyph-name="R" unicode="R" 
d="M-358 1622q0 -31 -25 -57q-16 -19 -61 -47l-308 -195h-86l295 297q31 31 64 50.5t65 19.5q17 0 37 -23q19 -25 19 -45z" />
    <glyph glyph-name="S" unicode="S" horiz-adv-x="1946" 
d="M80 469q0 205 151 362q54 60 117 97q64 37 136.5 53t162.5 16l-45 -24l-119 -66l-65 -69q-99 -107 -101 -287q0 -213 123 -332q101 -102 244 -104q61 0 133 41q-129 129 -129 317q0 205 152 363q80 88 182 127q98 38 235 38l-47 -24l-116 -66l-68 -69q-96 -107 -98 -287
q0 -213 123 -332q98 -102 241 -104q103 0 236 114v1283l-2 92l-21 49l-65 8l-72 -33l-27 29l187 90l172 76h47v-2329l2 -86l20 -49l66 -8l72 33l26 -29l-186 -90l-170 -78h-49v961q-98 -86 -168 -115q-82 -33 -184 -33q-175 0 -306 105q-67 -54 -120 -76q-82 -33 -185 -33
q-198 0 -340 135q-69 66 -106 150q-39 86 -39 184z" />
    <glyph glyph-name="T" unicode="T" 
d="M-510 1436q0 -43 -31 -74q-32 -33 -75 -33q-41 0 -72 33q-33 31 -33 74q0 41 31 73q31 33 74 33t74.5 -31.5t31.5 -74.5z" />
    <glyph glyph-name="U" unicode="U" 
d="M-401 1743q41 -39 41 -103q0 -51 -31 -104q-92 -127 -330 -217l-20 33q98 57 151 106t94 113q15 31 15 59q0 41 -23 62q-18 18 -51 18q-29 0 -66 -12l-20 24q29 31 45 45q18 15 51 21q94 0 144 -45z" />
    <glyph glyph-name="V" unicode="V" 
d="M-39 1642q0 -28 -16 -47q-4 -6 -31 -34q-27 -31 -35 -39l-186 -195h-86l176 256q29 45 74 88q20 21 39 23q26 0 43 -11q22 -22 22 -41z" />
    <glyph glyph-name="W" unicode="W" horiz-adv-x="1946" 
d="M930 170q84 104 84 274q0 213 -119 332q-102 103 -246 103q-121 0 -231 -95v-614h512zM1534 172q90 111 90 277q0 213 -121 331q-102 103 -246 103q-69 0 -135 -33q133 -129 133 -322q0 -198 -143 -356h422zM201 1507l-2 92l-21 50l-67 8l-72 -33l-25 29l187 90l172 76
h45v-961q82 70 164 103q82 34 184 34q172 0 303 -100q55 43 123 70q82 34 184 34q199 0 342 -135q146 -133 146 -332q0 -100 -39 -184q-41 -84 -121 -172h240l-154 -176h-1372v-510l2 -86l20 -49l68 -8l72 32l24 -28l-186 -90l-168 -78h-49v2324z" />
    <glyph glyph-name="X" unicode="X" horiz-adv-x="1946" 
d="M1024 834q-94 -105 -96 -279q0 -213 123 -332q98 -102 241 -104q103 0 236 114l4 601h-508zM416 836q-97 -105 -99 -285q0 -213 123 -332q101 -102 244 -104q61 0 133 41q-129 129 -129 313v4q0 205 152 363h-424zM233 834h-231l152 167h1374v515l-2 92l-21 49l-65 8
l-72 -33l-27 29l187 90l172 76h47v-2329l2 -86l20 -49l66 -8l72 33l26 -29l-186 -90l-170 -78h-49v961q-98 -86 -168 -115q-82 -33 -184 -33q-175 0 -306 105q-67 -54 -120 -76q-82 -33 -185 -33q-198 0 -340 135q-145 133 -145 330v4q0 205 153 365z" />
    <glyph glyph-name="Y" unicode="Y" 
d="M-866 1325q37 113 67 182q31 70 70 119t100 98q54 31 107 31q65 0 125 -53q22 -19 30 -49q9 -31 9 -84q-7 -23 -17 -41q-10 -23 -20 -35q-13 -14 -23 -31l-28 19q2 14 2 41q0 45 -21 71q-18 23 -57 23q-33 0 -64 -21q-24 -14 -65 -57t-82 -100q-43 -58 -78 -127z" />
    <glyph glyph-name="Z" unicode="Z" horiz-adv-x="1331" 
d="M420 840q-101 -109 -103 -289q0 -213 123 -332q101 -102 244 -104q102 0 236 114v611h-500zM238 840h-236l127 159h414q184 -2 377 -2v514l-2 93l-21 49l-68 8l-71 -33l-25 29l187 90l172 76h45v-2329l2 -86l20 -49l68 -8l71 33l25 -29l-186 -90l-168 -78h-49v960
q-111 -92 -170 -114q-82 -33 -185 -33q-198 0 -340 135q-145 133 -145 330v4q0 100 41 197q41 94 117 174z" />
    <glyph glyph-name="bracketleft" unicode="[" 
d="M-1040 1110l65 123h770l-57 -123h-778z" />
    <glyph glyph-name="backslash" unicode="\" horiz-adv-x="1024" 
d="M958 643q-49 -129 -116 -194q-68 -68 -160 -68q-55 0 -129 29q-82 34 -111 47q-28 10 -73 10q-99 0 -285 -98q10 28 43 90q33 59 105.5 118.5t170.5 59.5q76 0 170 -47q91 -47 156 -47q94 0 229 100z" />
    <glyph glyph-name="bracketright" unicode="]" horiz-adv-x="1178" 
d="M948 184q27 0 56 11q26 10 77 32q49 23 66 27q-74 -125 -213 -188q-133 -66 -301 -66q-271 0 -432 166q-133 139 -133 311q0 127 79 252q84 123 218 184q133 58 284 58q156 0 285 -39q129 -41 151 -119q-6 -37 -36 -61q-29 -25 -66 -25q-43 0 -78 35q-20 59 -119.5 102
t-177.5 43q-71 0 -141 -30q-70 -33 -113 -113q-43 -78 -43 -203q0 -199 104.5 -344t276.5 -145q90 0 155.5 19.5t100.5 92.5z" />
    <glyph glyph-name="asciicircum" unicode="^" 
d="M-1235 1325q53 164 100 246q48 80 138 153q53 31 106 31q66 0 125 -53q23 -19 31 -47q8 -33 8 -86q-6 -27 -31.5 -66t-27.5 -41l-29 19q2 14 2 41q0 47 -21 71q-18 23 -57 23q-33 0 -63 -21q-27 -16 -68 -57q-41 -43 -84 -102q-43 -62 -78 -129z" />
    <glyph glyph-name="underscore" unicode="_" horiz-adv-x="655" 
d="M53 -279l156 99q-4 -17 -4 -47q0 -87 57.5 -147t126.5 -60q49 0 85.5 33t49.5 102q0 81 -63 148t-218 109t-411 42l152 205q172 0 300 -33.5t209 -91.5t117.5 -129.5t36.5 -153.5q0 -72 -29 -141q-39 -97 -124 -148t-183 -51q-69 0 -129.5 26t-96.5 75.5t-36 117.5
q0 13 4 45z" />
    <glyph glyph-name="grave" unicode="`" horiz-adv-x="614" 
d="M102 0v57l88 52v892h320v-49l-84 -49l-2 -799l86 -51v-53h-408z" />
    <glyph glyph-name="a" unicode="a" horiz-adv-x="1331" 
d="M1145 926v-1430l4 -94l20 -49l68 -8l72 32l24 -28l-188 -92l-170 -78h-45v971q-103 -89 -174 -117q-82 -33 -187 -33q-200 0 -342 137q-147 133 -147 332v4q0 207 151 367q58 61 121 98q64 37 137 53q74 17 164 17l-47 -25l-119 -68l-67 -69q-96 -107 -101 -289
q0 -215 125 -336q101 -102 244 -104q123 0 236 96v807l309 -2v-41z" />
    <glyph glyph-name="b" unicode="b" horiz-adv-x="1946" 
d="M1729 807v-393q2 -58 4 -105t4 -63q0 -19 2 -31q4 -41 30 -55q23 -17 56 -17q24 2 92 19l16 -37l-358 -125h-59v141q-84 -69 -166 -100q-82 -35 -185 -37h-8q-166 0 -295 100q-61 -45 -123 -69q-73 -35 -164 -35h-20h-4q-197 0 -336 131q-145 135 -147 334q0 172 147 342
h-215l174 199h1759l-123 -199h-81zM379 807q-37 -57 -53.5 -86t-28.5 -72q-14 -45 -14 -92q0 -100 41 -186q38 -88 106 -152q102 -102 246 -106q69 4 135 37q-68 63 -100 145q-35 80 -35 172q0 188 125 340h-422zM1513 807h-528q-65 -102 -65 -254v-8q0 -207 120 -324
q101 -98 242 -98h4q121 0 227 92v592z" />
    <glyph glyph-name="c" unicode="c" horiz-adv-x="1331" 
d="M381 811q-66 -113 -66 -260q2 -213 121 -332q101 -100 242 -100h4q119 0 229 92v600h-530zM174 1010l737 2v510l-2 86l-18 49l-66 10l-71 -33l-27 29l184 88l170 78l47 2v-1421q7 -154 7 -199q4 -39 30 -55q23 -17 56 -17q24 0 92 19l16 -37l-358 -121h-60v137
q-82 -67 -163 -100q-82 -35 -185 -37q-198 0 -342 137q-143 133 -147 332q0 188 131 344h-211z" />
    <glyph glyph-name="d" unicode="d" horiz-adv-x="1331" 
d="M643 997l-47 -24l-117 -68l-69 -67q-93 -109 -93 -289q0 -213 123 -332q101 -100 242 -100h4q121 0 232 94v1305l-7 86l-20 49l-66 8l-71 -33l-27 29l186 90l170 78h52v-1413q0 -150 4 -199q6 -39 30 -55q25 -17 58 -17q22 0 92 19l14 -37l-358 -121h-57v137
q-82 -69 -164 -102q-82 -35 -185 -35h-4q-198 0 -340 133q-145 133 -147 332q0 205 145 364q82 89 185 127q102 39 235 41z" />
    <glyph glyph-name="e" unicode="e" horiz-adv-x="1331" 
d="M424 199h516q80 98 80 260q0 215 -121 338q-102 102 -246 104q-121 0 -229 -98v-604zM6 0l156 199h39v1323l-2 94l-21 49l-67 8l-72 -33l-25 29l187 92l172 76h45v-971q98 90 170 119q82 33 184 33q199 0 340 -137q145 -129 145 -320v-16v-4q0 -193 -133 -342h211
l-190 -199h-1139z" />
    <glyph glyph-name="f" unicode="f" horiz-adv-x="1946" 
d="M1751 1823v-1512l2 -92l21 -49l67 -8l72 33l24 -29l-186 -90l-168 -78h-47v154q-98 -84 -172 -115q-82 -33 -184 -33q-174 0 -303 102q-72 -53 -121 -73q-82 -33 -185 -33q-200 0 -340 135q-147 133 -147 330v4q0 205 152 362q79 89 180 127q100 39 237 39l-47 -24
l-117 -66l-67 -69q-96 -107 -98 -287q0 -213 122 -332q99 -102 242 -104q66 0 141 35q-135 131 -135 319v4q0 205 152 363q51 59 117 96q61 37 137 53q71 16 162 16l-45 -24l-119 -66l-66 -69q-98 -107 -100 -287q0 -213 123 -332q100 -102 243 -104q123 0 236 96v1301
l-6 86l-21 49l-65 8l-72 -33l-27 29l189 90l168 78h51z" />
    <glyph glyph-name="g" unicode="g" horiz-adv-x="1946" 
d="M1808 1004v-41l-79 -48v-501q2 -58 4 -105t4 -63q0 -19 2 -31q4 -41 30 -55q23 -17 56 -17q24 2 92 19l16 -37l-358 -125h-59v141q-84 -69 -166 -100q-82 -35 -185 -37h-8q-166 0 -295 100q-61 -45 -123 -69q-73 -35 -164 -35h-20h-4q-197 0 -336 131q-145 135 -147 334
q0 205 147 362q55 62 118.5 99t137.5 53t162 16l-47 -24l-115 -64l-70 -67q-92 -111 -92 -291v-8q0 -207 121 -322q102 -102 246 -106q69 4 135 37q-68 63 -100 145q-35 80 -35 172q0 205 149 369q80 88 183 127q100 38 233 41l-45 -27l-115 -68l-69 -67q-92 -109 -92 -289
v-8q0 -207 120 -324q101 -98 242 -98h4q121 0 227 92v789h295z" />
    <glyph glyph-name="h" unicode="h" horiz-adv-x="1331" 
d="M1212 997v-41l-84 -49l5 -497q4 -160 6 -199q6 -39 30 -55q25 -17 58 -17q22 0 92 19l14 -37l-358 -121h-57v137q-82 -69 -164 -102q-82 -35 -185 -35h-4q-198 0 -340 133q-145 133 -147 332q0 205 145 364q82 89 185 127q102 39 235 41l-47 -24l-117 -68l-69 -67
q-93 -109 -93 -289q0 -213 123 -332q101 -100 242 -100h4q121 0 232 94l-7 788z" />
    <glyph glyph-name="i" unicode="i" horiz-adv-x="1434" 
d="M635 373l-62 -99l-84 -114l-124 8l-129 33l-86 73l-46 132l-6 192l31 143l86 129q113 84 229 125q111 41 256 43q162 0 287 -26q129 -27 221 -99q49 -34 88 -79q37 -48 60 -101q24 -53 35 -104q12 -54 16 -119q0 -129 -53 -254q-54 -127 -164 -203l-139 -94l-172 -94
l-177 -84l-159 -94l-131 -140l-84 -145l-115 -274l-31 8l90 258l74 172l115 162l135 106l115 66l125 82l112 92q185 186 185 352q-5 123 -56 215q-47 94 -135 162q-70 55 -176 78q-109 20 -231 20q-97 0 -175 -35q-30 -12 -57 -37q-29 -24 -43 -34l-35 -78l-4 -111l60 -131
l88 -74l131 -28h135z" />
    <glyph glyph-name="j" unicode="j" horiz-adv-x="1536" 
d="M770 813q-55 0 -104 -25.5t-82 -60.5q-111 -115 -111 -299q0 -211 139 -360q138 -152 377 -152q156 0 266 57q142 74 232 228l41 -15q-21 -75 -53 -135q-31 -59 -74 -108q-45 -49 -107 -93q-88 -63 -204 -96q-115 -33 -238 -33q-145 0 -258 39q-115 41 -211 123
q-195 171 -195 439q0 165 92.5 298.5t237.5 192.5h-500l181 197h1329l-156 -197h-602z" />
    <glyph glyph-name="k" unicode="k" horiz-adv-x="1434" 
d="M1055 39q-262 -43 -396 -115q-135 -69 -176 -147q-43 -78 -43 -172q29 -156 119 -238t285 -92q96 0 186 33q88 30 127 74q53 65 53 135q0 41 -14 77q-18 35 -43 62q-27 27 -55 41q-43 22 -80 33q-41 10 -94 10q-21 0 -88 -4q34 65 102 100q66 35 145 35q84 0 160 -43
q45 -27 70 -78q24 -53 24 -119q0 -96 -49 -196q-59 -101 -194 -176q-138 -76 -275 -78q-143 0 -248 22q-104 25 -200 76q-146 78 -172 258q-4 25 -4 45q0 66 34 142q33 73 127 149q95 78 256 131q-200 23 -329 119q-187 135 -199 405q0 129 57 256q56 125 164 199l141 94
l177 94l178 82l162 95l133 139l84 143l118 275l33 -9l-92 -258l-78 -172l-119 -159l-135 -107l-114 -65l-127 -80l-113 -92q-188 -191 -188 -353q2 -118 49 -213q49 -94 139 -164q39 -28 86 -45q45 -18 104 -28q56 -10 107 -15q53 -6 113 -12q202 14 294 109q50 59 50 135
q0 45 -17.5 92t-46.5 90q-33 41 -67 78q-39 37 -103 63q-59 27 -137 43q-76 17 -141 17q-72 0 -123 -19q88 107 176 154q86 45 172 45q141 0 266 -117q55 -53 90 -143q33 -90 33 -191q0 -190 -119 -325q-119 -84 -235 -125z" />
    <glyph glyph-name="l" unicode="l" horiz-adv-x="1280" 
d="M469 899l240 141h36l435 -845q30 -50 41 -58q16 -14 41 -14q16 0 67 16l10 -33l-225 -106h-57l-400 795l-446 -787l-154 78l129 227l117 -51l332 580l-19 26l-30 27l-47 8l-52 -31z" />
    <glyph glyph-name="m" unicode="m" horiz-adv-x="1536" 
d="M645 813q-57 0 -122 -45.5t-89 -83.5q-41 -72 -41 -135q0 -64 35.5 -117t87.5 -92q47 -31 129 -31q56 0 126 15t167 44t143 42q59 16 115 16q82 0 154 -32t118.5 -97.5t55.5 -161.5q0 -128 -73.5 -231t-156.5 -150q-197 -110 -477 -123q-284 0 -457 84q-57 31 -57 92
q10 84 94 84q72 0 109 -47q63 -65 133 -94q58 -24 248 -33q61 0 134 20t122 46q62 38 93.5 66.5t41.5 84.5q6 28 6 56q0 136 -154 207q-50 39 -141 39q-52 0 -104.5 -8.5t-152.5 -28.5t-145.5 -26.5t-90.5 -6.5q-105 0 -164 43q-164 121 -164 260q0 102 86 223q22 30 75 67
t105 56l-416 -2l181 197h1329l-156 -197h-727z" />
    <glyph glyph-name="n" unicode="n" horiz-adv-x="1331" 
d="M918 809h-529q-72 -102 -72 -260q0 -213 121 -332q103 -102 246 -102q121 0 234 94v600zM1331 1010l-155 -201h-43v-403q0 -162 6 -199q4 -39 28 -53q23 -17 58 -17q22 0 92 23l14 -37l-356 -123h-62v135q-82 -69 -159 -102q-74 -33 -164 -33h-21h-4q-198 0 -342 133
q-145 129 -145 328q4 188 127 344h-203l178 201z" />
    <glyph glyph-name="o" unicode="o" horiz-adv-x="1331" 
d="M944 201v467q-8 69 -47 123q-41 57 -109 83q-67 29 -131 29q-120 0 -217 -78q-145 -116 -145 -297q0 -100 35 -182q32 -82 96 -137q106 -96 279 -96q124 0 239 88zM1237 -29l86 -16l160 22l129 -20l88 -33l2 -86l2 -61l-174 18l-174 -20l-178 10l-142 29l-86 34l-6 54
v231q-92 -72 -178 -100q-88 -31 -186 -31q-244 0 -375 109q-137 108 -137 335q0 66 14 132q14 63 47 123.5t88 113.5q57 53 127 86t156 49q84 15 174 15q164 0 270 -78l2 764q-6 28 -39 49q-20 12 -49 12q-33 0 -86 -14l-18 35l340 112h57v-1579q0 -198 10 -229
q6 -37 27 -51q8 -6 49 -15z" />
    <glyph glyph-name="p" unicode="p" 
d="M-184 1368q-49 -131 -117 -197q-68 -65 -160 -65q-53 0 -129 29q-76 32 -106 45q-33 12 -78 12q-100 0 -285 -98q10 30 43 90q35 59 106.5 118.5t170.5 59.5q80 0 170 -47q92 -47 155 -47q49 0 105 24q55 25 125 76z" />
    <glyph glyph-name="q" unicode="q" horiz-adv-x="1331" 
d="M948 197q66 104 66 260q0 213 -119 331q-102 103 -246 103q-121 0 -231 -94v-600h530zM1155 0h-737v-514l2 -86l20 -49l68 -8l72 32l24 -28l-186 -90l-168 -78h-49v1421q0 162 -6 199q-5 39 -31 55q-23 16 -55 16q-27 0 -82 -14l-15 41l346 111h60v-138q82 70 164 103
q82 35 184 35q201 0 344 -136q145 -133 145 -331q0 -195 -131 -344h211z" />
    <glyph glyph-name="r" unicode="r" horiz-adv-x="1946" 
d="M932 172q82 98 82 272q0 213 -119 332q-102 103 -246 103q-121 0 -231 -95v-612h514zM1534 172q90 111 90 277q0 213 -121 331q-102 103 -246 103q-69 0 -135 -33q133 -129 133 -322q0 -198 -143 -356h422zM201 0v1507l-2 92l-21 50l-67 8l-72 -33l-25 29l187 90l172 76
h45v-961q82 70 164 103q82 34 184 34q172 0 303 -100q55 43 123 70q82 34 184 34q199 0 342 -135q146 -133 146 -332q0 -100 -39 -184q-41 -84 -121 -172h240l-154 -176h-1589z" />
    <glyph glyph-name="s" unicode="s" horiz-adv-x="1946" 
d="M1833 1012v-41l-82 -47v-1420l2 -92l21 -49l67 -8l72 33l24 -29l-186 -90l-168 -78h-47v961q-98 -84 -172 -115q-82 -33 -184 -33q-174 0 -303 102q-72 -53 -121 -73q-82 -33 -185 -33q-200 0 -340 135q-147 133 -147 330v4q0 205 152 362q79 89 180 127q100 39 237 39
l-47 -24l-117 -66l-67 -69q-96 -107 -98 -287q0 -213 122 -332q99 -102 242 -104q66 0 141 35q-135 131 -135 319v4q0 205 152 363q51 59 117 96q61 37 137 53q71 16 162 16l-45 -24l-119 -66l-66 -69q-98 -107 -100 -287q0 -213 123 -332q100 -102 243 -104q121 0 234 96
v797h301z" />
    <glyph glyph-name="t" unicode="t" horiz-adv-x="1946" 
d="M932 174q82 98 82 275q0 215 -119 335q-102 103 -246 103q-121 0 -231 -94v-619h514zM1534 174q90 111 90 279q0 215 -121 335q-102 103 -246 103q-69 0 -135 -33q133 -131 133 -323q0 -201 -143 -361h422zM203 0l-2 594q0 164 -6 201q-5 39 -31 55q-23 16 -55 16
q-23 0 -93 -18l-16 37l358 121h60v-140q82 72 164 105q82 35 184 35q172 0 303 -103q53 43 123 72q82 35 184 35q199 0 342 -138q146 -133 146 -333q0 -101 -41 -187q-39 -88 -119 -174h240l-154 -178h-1587z" />
    <glyph glyph-name="u" unicode="u" horiz-adv-x="1331" 
d="M1016 864q-78 51 -156 51q-88 0 -211 -67q45 76 131 129q84 53 187 53q125 0 241 -88q78 -74 78 -172q0 -102 -92 -229l-686 -774q-127 -156 -127 -289q0 -88 61 -183q82 -79 199 -79q72 0 141 32q72 33 123 93q-18 -78 -67 -140q-47 -59 -119 -96q-74 -37 -154 -37
q-84 0 -168 39q-61 39 -110 102q-49 64 -49 162q0 80 43 172q41 90 139 203l229 258l-96 182l-254 -264q-57 -49 -57 -112q0 -41 20 -84q-18 -19 -37 -35q-16 -19 -39 -39q-20 -23 -47 -49q-26 -27 -37 -37q-6 39 -6 78q0 96 37 159q37 64 113 152l270 299l-287 532l-24 48
l-66 8l-73 -35l-25 29l184 92l92 41h52l69 -62l389 -700l246 276q55 64 55 148q0 71 -34.5 139t-77.5 94z" />
    <glyph glyph-name="v" unicode="v" horiz-adv-x="1946" 
d="M1024 834q-90 -105 -92 -279q0 -213 123 -332q100 -102 243 -104q123 0 236 96v619h-510zM422 838q-96 -107 -98 -287q0 -213 122 -332q99 -102 242 -104q66 0 141 35q-135 131 -135 319v4q0 205 152 363q-297 0 -424 2zM246 836h-156t-88 -2l152 167h1380v515l-6 86
l-21 49l-65 8l-72 -33l-27 29l189 90l168 78h51v-1512l2 -92l21 -49l67 -8l72 33l24 -29l-186 -90l-168 -78h-47v154q-98 -84 -172 -115q-82 -33 -184 -33q-174 0 -303 102q-72 -53 -121 -73q-82 -33 -185 -33q-200 0 -340 135q-147 133 -147 330v4q0 199 162 367z" />
    <glyph glyph-name="w" unicode="w" horiz-adv-x="1946" 
d="M442 0v-510l2 -86l21 -49l67 -8l72 32l25 -28l-187 -90l-168 -78h-49v1405q0 162 -6 198q-4 39 -31 56q-22 16 -55 16q-22 0 -92 -18l-16 37l358 118h59v-137q82 70 164 103q82 34 185 34q172 0 303 -100q55 43 123 70q81 34 184 34q198 0 342 -135q145 -133 145 -332
q0 -100 -39 -184q-41 -84 -120 -172h239l-153 -176h-1373zM954 172q84 102 84 272q0 213 -118 332q-103 103 -246 103q-121 0 -232 -95v-612h512zM1559 172q90 111 90 277q0 213 -121 331q-103 103 -246 103q-70 0 -135 -33q133 -129 133 -322q0 -200 -141 -356h420z" />
    <glyph glyph-name="x" unicode="x" horiz-adv-x="1946" 
d="M1751 815v-1311l2 -92l21 -49l67 -8l72 33l24 -29l-186 -90l-168 -78h-47v961q-98 -84 -172 -115q-82 -33 -184 -33q-174 0 -303 102q-72 -53 -121 -73q-82 -33 -185 -33q-200 0 -340 135q-147 133 -147 330v4q0 195 137 346h-209l183 197h1505h51h182l-135 -197h-47z
M1012 815q-78 -100 -80 -260q0 -213 123 -332q100 -102 243 -104q121 0 234 96v492l-4 86l-6 22h-152h-358zM406 815q-80 -100 -82 -264q0 -213 122 -332q99 -102 242 -104q66 0 141 35q-135 131 -135 319v4q0 193 133 342h-421z" />
    <glyph glyph-name="y" unicode="y" horiz-adv-x="1331" 
d="M201 0v600q0 162 -6 199q-5 39 -31 55q-23 16 -55 16q-17 0 -80 -16l-17 37l346 117h60v-138q82 70 164 103q82 35 184 35q201 0 344 -136q145 -133 145 -331q0 -193 -131 -344h205l-178 -197h-950zM418 197h524q72 102 72 260q0 213 -119 331q-102 103 -246 103
q-121 0 -231 -94v-600z" />
    <glyph glyph-name="z" unicode="z" horiz-adv-x="1331" 
d="M397 811q-78 -100 -80 -260q0 -213 123 -332q101 -102 244 -104q121 0 234 96v491l-5 86l-6 23h-151h-359zM1137 811v-1311l2 -92l20 -49l68 -8l71 33l25 -29l-186 -90l-168 -78h-47v960q-103 -86 -172 -114q-82 -33 -185 -33q-198 0 -340 135q-145 133 -145 330v4
q0 193 133 342h-211l191 197h892h52h194l-155 -197h-39z" />
    <glyph glyph-name="braceleft" unicode="{" 
d="M-262 1114h-1426l66 123h1417z" />
    <glyph glyph-name="bar" unicode="|" 
d="M-678 -459q14 -35 14 -69q0 -72 -61 -125q-61 -52 -141 -52q-25 0 -45 5q-70 14 -111 63q-43 49 -43 125q0 51 23 113q28 82 119.5 165.5t203.5 155.5q113 74 209 117l41 -21q-68 -45 -145 -96q-80 -51 -144 -102q-63 -56 -108 -119q-45 -66 -49 -139q0 -56 22 -84
q23 -31 59 -31q64 0 109 82q16 29 29 29q12 0 18 -17z" />
    <glyph glyph-name="braceright" unicode="}" 
d="M-289 -408l76 -2q0 -71 -35 -127q-33 -53 -71 -61q-33 -20 -82 -20q-58 2 -115 22q-59 23 -86 55q-35 47 -35 119q0 64 31 111q26 61 116.5 149t157.5 117l45 -29q-104 -80 -164 -155q-59 -74 -73 -156q0 -27 8 -43q6 -21 18 -33q13 -12 29 -22q18 -11 23 -13
q14 -8 38 -8q39 0 74 24.5t45 71.5z" />
    <glyph glyph-name="asciitilde" unicode="~" horiz-adv-x="614" 
d="M426 -750l-315 -151l-19 41l98 49v1812h320v-49l-84 -49v-1653z" />
    <glyph glyph-name="DEL" horiz-adv-x="1331" 
d="M852 307q-32 -121 -83.5 -180t-106.5 -59q-65 0 -118.5 68t-68.5 171q-110 121 -110 215q0 54 38 93t100 58t134 19q83 0 155.5 -22.5t119 -66t46.5 -103.5q0 -90 -106 -193zM561 541q-30 -1 -46.5 -17.5t-16.5 -40.5q0 -20 14.5 -35t40.5 -14q33 1 51.5 18t18.5 37
t-16 34.5t-46 17.5zM762 537q-30 -1 -47 -17.5t-17 -40.5q0 -20 15 -35t41 -14q34 1 51.5 17.5t17.5 37.5q0 18 -16.5 33.5t-44.5 18.5zM659 406q-29 -1 -46 -18t-17 -40q0 -20 14.5 -35t40.5 -14q33 1 51.5 18t18.5 37q0 18 -17 33.5t-45 18.5zM53 705l37 57q3 31 18.5 49
t34.5 18q45 0 45 -79l197 -95q-61 -27 -61 -102l-193 94q-34 -33 -65 -33q-19 0 -30 11t-11 28q0 28 28 52zM1198 788l31 -61q37 -26 37 -57q0 -19 -13 -32t-32 -13q-26 0 -52 22l-180 -123q0 43 -13.5 66t-43.5 39l178 121q-4 12 -4 34q0 29 12.5 44.5t30.5 15.5
q16 0 30.5 -14.5t18.5 -41.5zM438 266l-209 -131q4 -12 4 -35q0 -28 -12.5 -43.5t-30.5 -15.5q-40 0 -49 55l-30 62q-37 25 -37 57q0 18 12.5 31.5t32.5 13.5q26 0 51 -22l197 127zM958 375l195 -117q32 27 64 27q20 0 31.5 -10.5t11.5 -28.5q0 -27 -33 -51l-43 -54
q-4 -31 -21 -46t-35 -15q-16 0 -30.5 14.5t-14.5 38.5q0 19 4 29l-206 121z" />
    <glyph glyph-name="u0080" horiz-adv-x="1331" 
d="M852 307q-32 -121 -83.5 -180t-106.5 -59q-65 0 -118.5 68t-68.5 171q-110 121 -110 215q0 54 38 93t100 58t134 19q83 0 155.5 -22.5t119 -66t46.5 -103.5q0 -90 -106 -193zM561 541q-30 -1 -46.5 -17.5t-16.5 -40.5q0 -20 14.5 -35t40.5 -14q33 1 51.5 18t18.5 37
t-16 34.5t-46 17.5zM762 537q-30 -1 -47 -17.5t-17 -40.5q0 -20 15 -35t41 -14q34 1 51.5 17.5t17.5 37.5q0 18 -16.5 33.5t-44.5 18.5zM659 406q-29 -1 -46 -18t-17 -40q0 -20 14.5 -35t40.5 -14q33 1 51.5 18t18.5 37q0 18 -17 33.5t-45 18.5zM53 705l37 57q3 31 18.5 49
t34.5 18q45 0 45 -79l197 -95q-61 -27 -61 -102l-193 94q-34 -33 -65 -33q-19 0 -30 11t-11 28q0 28 28 52zM1198 788l31 -61q37 -26 37 -57q0 -19 -13 -32t-32 -13q-26 0 -52 22l-180 -123q0 43 -13.5 66t-43.5 39l178 121q-4 12 -4 34q0 29 12.5 44.5t30.5 15.5
q16 0 30.5 -14.5t18.5 -41.5zM438 266l-209 -131q4 -12 4 -35q0 -28 -12.5 -43.5t-30.5 -15.5q-40 0 -49 55l-30 62q-37 25 -37 57q0 18 12.5 31.5t32.5 13.5q26 0 51 -22l197 127zM958 375l195 -117q32 27 64 27q20 0 31.5 -10.5t11.5 -28.5q0 -27 -33 -51l-43 -54
q-4 -31 -21 -46t-35 -15q-16 0 -30.5 14.5t-14.5 38.5q0 19 4 29l-206 121z" />
    <glyph glyph-name="u0081" horiz-adv-x="1331" 
d="M852 307q-32 -121 -83.5 -180t-106.5 -59q-65 0 -118.5 68t-68.5 171q-110 121 -110 215q0 54 38 93t100 58t134 19q83 0 155.5 -22.5t119 -66t46.5 -103.5q0 -90 -106 -193zM561 541q-30 -1 -46.5 -17.5t-16.5 -40.5q0 -20 14.5 -35t40.5 -14q33 1 51.5 18t18.5 37
t-16 34.5t-46 17.5zM762 537q-30 -1 -47 -17.5t-17 -40.5q0 -20 15 -35t41 -14q34 1 51.5 17.5t17.5 37.5q0 18 -16.5 33.5t-44.5 18.5zM659 406q-29 -1 -46 -18t-17 -40q0 -20 14.5 -35t40.5 -14q33 1 51.5 18t18.5 37q0 18 -17 33.5t-45 18.5zM53 705l37 57q3 31 18.5 49
t34.5 18q45 0 45 -79l197 -95q-61 -27 -61 -102l-193 94q-34 -33 -65 -33q-19 0 -30 11t-11 28q0 28 28 52zM1198 788l31 -61q37 -26 37 -57q0 -19 -13 -32t-32 -13q-26 0 -52 22l-180 -123q0 43 -13.5 66t-43.5 39l178 121q-4 12 -4 34q0 29 12.5 44.5t30.5 15.5
q16 0 30.5 -14.5t18.5 -41.5zM438 266l-209 -131q4 -12 4 -35q0 -28 -12.5 -43.5t-30.5 -15.5q-40 0 -49 55l-30 62q-37 25 -37 57q0 18 12.5 31.5t32.5 13.5q26 0 51 -22l197 127zM958 375l195 -117q32 27 64 27q20 0 31.5 -10.5t11.5 -28.5q0 -27 -33 -51l-43 -54
q-4 -31 -21 -46t-35 -15q-16 0 -30.5 14.5t-14.5 38.5q0 19 4 29l-206 121z" />
    <glyph glyph-name="quotesinglbase" unicode="&#x201a;" 
d="M-760 256q-11 -8 -22 -8q-21 0 -21 18q0 12 8 23l306 293q28 28 63 51q31 16 51 16q25 0 41 -16q12 -17 12 -43q0 -13 -5 -21t-23 -28q-17 -19 -62 -47zM-578 135q-11 -8 -22 -8q-21 0 -21 18q0 11 9 23l305 293q30 30 63 51q31 16 51 16q25 0 41 -16q13 -16 13 -43
q0 -14 -6 -22t-23 -27q-16 -19 -61 -47z" />
    <glyph glyph-name="florin" unicode="&#x192;" 
d="M-1262 -629q-11 -8 -22 -8q-21 0 -21 19q0 12 9 22l305 293q30 30 63 51q31 16 51 16q25 0 41 -16q13 -16 13 -43q0 -14 -6 -22t-23 -27q-16 -18 -61 -47zM-1079 -750q-11 -8 -23 -8q-20 0 -20 19q0 11 8 22l305 293q31 31 64 51q29 17 51 17q24 0 41 -17q12 -16 12 -43
q0 -17 -29 -49q-16 -18 -61 -47z" />
    <glyph glyph-name="quotedblbase" unicode="&#x201e;" 
d="M-911 -633q-12 -8 -23 -8q-20 0 -20 18q0 12 8 23l305 293q30 30 63 51q31 16 52 16q24 0 41 -16q12 -16 12 -43q0 -18 -29 -49q-16 -19 -61 -47zM-729 -754q-11 -8 -23 -8q-20 0 -20 19q0 11 8 22l305 293q35 33 64 51q31 17 51 17q25 0 41 -17q12 -16 12 -43
q0 -17 -28 -49q-17 -18 -62 -47z" />
    <glyph glyph-name="ellipsis" unicode="&#x2026;" 
d="M-651 -641q-11 -8 -23 -8q-20 0 -20 18q0 12 8 23l305 293q31 29 64 51q29 16 51 16q24 0 41 -16q12 -17 12 -43q0 -13 -6.5 -23t-22.5 -26q-16 -19 -61 -47zM-469 -762q-11 -8 -23 -8q-20 0 -20 18q0 12 8 23l305 293q35 33 64 51q29 16 51 16q25 0 41 -16
q12 -16 12 -43q0 -13 -5 -21t-23 -28q-17 -19 -62 -47z" />
    <glyph glyph-name="dagger" unicode="&#x2020;" 
d="M-532 -629q-14 -10 -27 -10q-19 0 -19 18q0 7 7 21l252 295q21 26 59 55q27 19 49 21q27 0 43 -13q12 -15 16 -41q0 -18 -24 -51q-14 -20 -57 -53zM-391 -782q-10 -11 -25 -11q-18 0 -18 19q0 8 6 20l260 297q26 31 59 56q27 18 50 20q26 0 43 -12q14 -17 14 -41
q0 -25 -25 -51q-14 -21 -55 -54z" />
    <glyph glyph-name="daggerdbl" unicode="&#x2021;" horiz-adv-x="1178" 
d="M1057 217q-3 -1 -3.5 -2t-0.5 -2l51 33t49 33q1 -42 1.5 -78t0.5 -97q-20 -128 -59 -278.5t-64 -165.5q-54 -28 -121 -39q-24 0 -24 6t10 19q25 62 40 129t23 135t11 106t8 66q-67 -39 -161.5 -60.5t-184.5 -21.5q-271 0 -432 166q-133 139 -133 311q0 127 79 252
q84 123 218 184q133 58 284 58q156 0 285 -39q129 -41 151 -119q-6 -37 -36 -61q-29 -25 -66 -25q-43 0 -78 35q-20 59 -119.5 102t-177.5 43q-71 0 -141 -30q-70 -33 -113 -113q-43 -78 -43 -203q0 -199 104.5 -344t276.5 -145q90 0 155.5 19.5t100.5 92.5q8 0 54 15t55 18
z" />
    <glyph glyph-name="circumflex" unicode="&#x2c6;" horiz-adv-x="573" 
d="M389 838q0 -43 -31 -74q-32 -33 -75 -33q-41 0 -74 33t-33 74t33 73q33 33 74 33q43 0 74.5 -31.5t31.5 -74.5zM379 106q0 -43 -31 -73q-33 -33 -76 -33q-41 0 -73.5 33t-32.5 73q0 41 32.5 74t73.5 33q43 0 76 -31q31 -32 31 -76zM389 479q0 -43 -31 -73
q-32 -33 -75 -33q-41 0 -74 32.5t-33 73.5t33 74t74 33q43 0 75 -31q31 -33 31 -76z" />
    <glyph glyph-name="perthousand" unicode="&#x2030;" 
d="M-1171 -686q-12 -8 -23 -8q-20 0 -20 18q0 11 8 23l305 293q25 25 63 51q31 16 52 16q24 0 41 -16q12 -17 12 -43q0 -13 -6.5 -23t-22.5 -26q-16 -19 -61 -48z" />
    <glyph glyph-name="Scaron" unicode="&#x160;" 
d="M-813 -686q-11 -8 -23 -8q-20 0 -20 18q0 11 8 23l305 293q31 29 64 51q29 16 51 16q25 0 41 -16q12 -17 12 -43q0 -13 -5 -21t-23 -28q-17 -19 -62 -48z" />
    <glyph glyph-name="guilsinglleft" unicode="&#x2039;" 
d="M-549 -694q-11 -8 -22 -8q-21 0 -21 18q0 11 8 22l305 293q29 29 64 52q29 16 51 16q25 0 41 -16q12 -17 12 -43q0 -11 -3 -18t-9 -13.5t-16 -18.5q-17 -18 -62 -47z" />
    <glyph glyph-name="OE" unicode="&#x152;" horiz-adv-x="682" 
d="M637 -401v-37q-152 76 -252 178q-145 145 -223 342t-78 410q0 309 154 565q151 256 399 364v-41q-125 -67 -203 -186q-80 -119 -119 -299t-39 -379q0 -213 33 -387q27 -139 64 -221q37 -84 99.5 -162t164.5 -147z" />
    <glyph glyph-name="u008D" horiz-adv-x="1331" 
d="M852 307q-32 -121 -83.5 -180t-106.5 -59q-65 0 -118.5 68t-68.5 171q-110 121 -110 215q0 54 38 93t100 58t134 19q83 0 155.5 -22.5t119 -66t46.5 -103.5q0 -90 -106 -193zM561 541q-30 -1 -46.5 -17.5t-16.5 -40.5q0 -20 14.5 -35t40.5 -14q33 1 51.5 18t18.5 37
t-16 34.5t-46 17.5zM762 537q-30 -1 -47 -17.5t-17 -40.5q0 -20 15 -35t41 -14q34 1 51.5 17.5t17.5 37.5q0 18 -16.5 33.5t-44.5 18.5zM659 406q-29 -1 -46 -18t-17 -40q0 -20 14.5 -35t40.5 -14q33 1 51.5 18t18.5 37q0 18 -17 33.5t-45 18.5zM53 705l37 57q3 31 18.5 49
t34.5 18q45 0 45 -79l197 -95q-61 -27 -61 -102l-193 94q-34 -33 -65 -33q-19 0 -30 11t-11 28q0 28 28 52zM1198 788l31 -61q37 -26 37 -57q0 -19 -13 -32t-32 -13q-26 0 -52 22l-180 -123q0 43 -13.5 66t-43.5 39l178 121q-4 12 -4 34q0 29 12.5 44.5t30.5 15.5
q16 0 30.5 -14.5t18.5 -41.5zM438 266l-209 -131q4 -12 4 -35q0 -28 -12.5 -43.5t-30.5 -15.5q-40 0 -49 55l-30 62q-37 25 -37 57q0 18 12.5 31.5t32.5 13.5q26 0 51 -22l197 127zM958 375l195 -117q32 27 64 27q20 0 31.5 -10.5t11.5 -28.5q0 -27 -33 -51l-43 -54
q-4 -31 -21 -46t-35 -15q-16 0 -30.5 14.5t-14.5 38.5q0 19 4 29l-206 121z" />
    <glyph glyph-name="u008E" horiz-adv-x="1331" 
d="M852 307q-32 -121 -83.5 -180t-106.5 -59q-65 0 -118.5 68t-68.5 171q-110 121 -110 215q0 54 38 93t100 58t134 19q83 0 155.5 -22.5t119 -66t46.5 -103.5q0 -90 -106 -193zM561 541q-30 -1 -46.5 -17.5t-16.5 -40.5q0 -20 14.5 -35t40.5 -14q33 1 51.5 18t18.5 37
t-16 34.5t-46 17.5zM762 537q-30 -1 -47 -17.5t-17 -40.5q0 -20 15 -35t41 -14q34 1 51.5 17.5t17.5 37.5q0 18 -16.5 33.5t-44.5 18.5zM659 406q-29 -1 -46 -18t-17 -40q0 -20 14.5 -35t40.5 -14q33 1 51.5 18t18.5 37q0 18 -17 33.5t-45 18.5zM53 705l37 57q3 31 18.5 49
t34.5 18q45 0 45 -79l197 -95q-61 -27 -61 -102l-193 94q-34 -33 -65 -33q-19 0 -30 11t-11 28q0 28 28 52zM1198 788l31 -61q37 -26 37 -57q0 -19 -13 -32t-32 -13q-26 0 -52 22l-180 -123q0 43 -13.5 66t-43.5 39l178 121q-4 12 -4 34q0 29 12.5 44.5t30.5 15.5
q16 0 30.5 -14.5t18.5 -41.5zM438 266l-209 -131q4 -12 4 -35q0 -28 -12.5 -43.5t-30.5 -15.5q-40 0 -49 55l-30 62q-37 25 -37 57q0 18 12.5 31.5t32.5 13.5q26 0 51 -22l197 127zM958 375l195 -117q32 27 64 27q20 0 31.5 -10.5t11.5 -28.5q0 -27 -33 -51l-43 -54
q-4 -31 -21 -46t-35 -15q-16 0 -30.5 14.5t-14.5 38.5q0 19 4 29l-206 121z" />
    <glyph glyph-name="u008F" horiz-adv-x="1331" 
d="M852 307q-32 -121 -83.5 -180t-106.5 -59q-65 0 -118.5 68t-68.5 171q-110 121 -110 215q0 54 38 93t100 58t134 19q83 0 155.5 -22.5t119 -66t46.5 -103.5q0 -90 -106 -193zM561 541q-30 -1 -46.5 -17.5t-16.5 -40.5q0 -20 14.5 -35t40.5 -14q33 1 51.5 18t18.5 37
t-16 34.5t-46 17.5zM762 537q-30 -1 -47 -17.5t-17 -40.5q0 -20 15 -35t41 -14q34 1 51.5 17.5t17.5 37.5q0 18 -16.5 33.5t-44.5 18.5zM659 406q-29 -1 -46 -18t-17 -40q0 -20 14.5 -35t40.5 -14q33 1 51.5 18t18.5 37q0 18 -17 33.5t-45 18.5zM53 705l37 57q3 31 18.5 49
t34.5 18q45 0 45 -79l197 -95q-61 -27 -61 -102l-193 94q-34 -33 -65 -33q-19 0 -30 11t-11 28q0 28 28 52zM1198 788l31 -61q37 -26 37 -57q0 -19 -13 -32t-32 -13q-26 0 -52 22l-180 -123q0 43 -13.5 66t-43.5 39l178 121q-4 12 -4 34q0 29 12.5 44.5t30.5 15.5
q16 0 30.5 -14.5t18.5 -41.5zM438 266l-209 -131q4 -12 4 -35q0 -28 -12.5 -43.5t-30.5 -15.5q-40 0 -49 55l-30 62q-37 25 -37 57q0 18 12.5 31.5t32.5 13.5q26 0 51 -22l197 127zM958 375l195 -117q32 27 64 27q20 0 31.5 -10.5t11.5 -28.5q0 -27 -33 -51l-43 -54
q-4 -31 -21 -46t-35 -15q-16 0 -30.5 14.5t-14.5 38.5q0 19 4 29l-206 121z" />
    <glyph glyph-name="u0090" horiz-adv-x="1331" 
d="M852 307q-32 -121 -83.5 -180t-106.5 -59q-65 0 -118.5 68t-68.5 171q-110 121 -110 215q0 54 38 93t100 58t134 19q83 0 155.5 -22.5t119 -66t46.5 -103.5q0 -90 -106 -193zM561 541q-30 -1 -46.5 -17.5t-16.5 -40.5q0 -20 14.5 -35t40.5 -14q33 1 51.5 18t18.5 37
t-16 34.5t-46 17.5zM762 537q-30 -1 -47 -17.5t-17 -40.5q0 -20 15 -35t41 -14q34 1 51.5 17.5t17.5 37.5q0 18 -16.5 33.5t-44.5 18.5zM659 406q-29 -1 -46 -18t-17 -40q0 -20 14.5 -35t40.5 -14q33 1 51.5 18t18.5 37q0 18 -17 33.5t-45 18.5zM53 705l37 57q3 31 18.5 49
t34.5 18q45 0 45 -79l197 -95q-61 -27 -61 -102l-193 94q-34 -33 -65 -33q-19 0 -30 11t-11 28q0 28 28 52zM1198 788l31 -61q37 -26 37 -57q0 -19 -13 -32t-32 -13q-26 0 -52 22l-180 -123q0 43 -13.5 66t-43.5 39l178 121q-4 12 -4 34q0 29 12.5 44.5t30.5 15.5
q16 0 30.5 -14.5t18.5 -41.5zM438 266l-209 -131q4 -12 4 -35q0 -28 -12.5 -43.5t-30.5 -15.5q-40 0 -49 55l-30 62q-37 25 -37 57q0 18 12.5 31.5t32.5 13.5q26 0 51 -22l197 127zM958 375l195 -117q32 27 64 27q20 0 31.5 -10.5t11.5 -28.5q0 -27 -33 -51l-43 -54
q-4 -31 -21 -46t-35 -15q-16 0 -30.5 14.5t-14.5 38.5q0 19 4 29l-206 121z" />
    <glyph glyph-name="quoteleft" unicode="&#x2018;" 
d="M-606 152q-58 -131 -160 -357t-229 -449.5t-279.5 -385t-306.5 -172.5q-49 0 -102.5 27.5t-53.5 94.5q0 26 13 62l122 139q-8 -24 -8 -51q0 -53 36.5 -83t88.5 -30q48 0 92 25q83 46 169 157.5t176.5 272.5t174.5 331.5t214 438.5q22 25 32 25q15 0 21 -45z" />
    <glyph glyph-name="quoteright" unicode="&#x2019;" 
d="M-246 164q-119 -143 -247.5 -376.5t-256 -466t-254 -367.5t-282.5 -150q-49 0 -102.5 27.5t-53.5 95.5q0 25 12 61l123 140q-8 -25 -8 -52q0 -52 36.5 -82t88.5 -30q50 0 92 24q90 54 162.5 161t187 324.5t213.5 383t236 327.5q21 25 33 25q15 0 20 -45z" />
    <glyph glyph-name="quotedblleft" unicode="&#x201c;" 
d="M-258 53q-51 -114 -154 -337t-218.5 -422t-254.5 -345t-282 -161q-52 3 -104 28.5t-52 93.5q0 24 12 62l123 139q-8 -24 -8 -51q0 -53 36.5 -83t88.5 -30q47 0 92 25q77 48 153 146.5t157 242t152.5 290.5t205.5 423q21 24 32 24q16 0 21 -45z" />
    <glyph glyph-name="quotedblright" unicode="&#x201d;" 
d="M-6 6q-30 -59 -62.5 -330.5t-57.5 -425t-104.5 -301t-226.5 -161.5q-47 0 -99 30t-52 97q0 25 12 63l119 133q-8 -21 -8 -47q0 -56 39.5 -94.5t85.5 -38.5q49 0 71 37q63 102 92.5 230t53.5 345t37 300t53 182q8 14 22 14q25 0 25 -33z" />
    <glyph glyph-name="bullet" unicode="&#x2022;" horiz-adv-x="1331" 
d="M12 -793q31 116 74.5 199t100 147t120 115.5t162.5 126.5l389 295q166 134 166 356q0 213 -123 332q-102 103 -248 103q-121 0 -229 -93l-4 -788h-314l5 39l92 51v1407l-2 92l-23 49l-65 9l-74 -33l-25 28l189 91l172 75h47v-948q82 70 166 103q82 34 184 34
q203 0 346 -135q148 -132 148 -332q0 -90 -42.5 -186t-118 -182.5t-163.5 -141.5l-364 -274q-95 -71 -189.5 -174t-118.5 -182l1041 2l-58 -185h-1241z" />
    <glyph glyph-name="emdash" unicode="&#x2013;" horiz-adv-x="1946" 
d="M1442 1659q-226 -5 -399 -41.5t-302.5 -108.5t-216.5 -182q-101 -128 -152 -310t-61 -374q0 -81 18 -164.5t49 -154t68 -105.5q99 -102 242 -104q66 0 141 35q-135 131 -135 319v4q0 205 152 363q51 59 117 96q61 37 137 53q71 16 162 16l-45 -24l-119 -66l-66 -69
q-98 -107 -100 -287q0 -213 123 -332q100 -102 243 -104q123 0 236 96v1301l-6 86l-21 49zM1751 1823v-1512l2 -92l21 -49l67 -8l72 33l24 -29l-186 -90l-168 -78h-47v154q-98 -84 -172 -115q-82 -33 -184 -33q-174 0 -303 102q-72 -53 -121 -73q-82 -33 -185 -33
q-200 0 -340 135q-69 62 -108 191t-39 241q6 176 55.5 330t135 280t200.5 232q112 103 249.5 181t294.5 129t343 77.5t389 26.5z" />
    <glyph glyph-name="endash" unicode="&#x2014;" horiz-adv-x="1331" 
d="M481 -596q107 0 158 6q49 8 79 19t52 27.5t40 36.5t38 42q55 60 76.5 111.5t29.5 177.5q2 51 2 176v811h-755l-68 -16l-55 -56l-33 19l231 252h918v-1010q0 -48 -5.5 -88.5t-21.5 -75.5q-71 -155 -258 -352q-102 -106 -157.5 -160t-108.5 -86q-59 -33 -162 -33h-180z" />
    <glyph glyph-name="tilde" unicode="&#x2dc;" 
d="M-993 -385q75 0 123 -47q41 -43 41 -98q0 -41 -23 -78q-22 -41 -59 -60q-39 -20 -88 -20q-76 0 -123 49q-39 43 -39 100q0 39 22 78q25 39 64 60q37 16 82 16zM-1006 -403q-20 0 -41 -11q-20 -10 -32 -35q-13 -24 -13 -63q0 -63 31 -109q29 -47 80 -47q35 0 57 27
q25 25 25 86q0 78 -39 121q-27 31 -68 31z" />
    <glyph glyph-name="trademark" unicode="&#x2122;" 
d="M-616 -385q75 0 122 -47q41 -43 41 -98q0 -41 -22 -78q-23 -41 -60.5 -60.5t-87.5 -19.5q-75 0 -122 49q-39 43 -39 100q0 39 22 78q25 39 64 60q36 16 82 16zM-629 -403q-20 0 -41 -11q-18 -10 -32 -35q-13 -24 -13 -63q0 -63 31 -109q29 -47 80 -47q35 0 57 27
q25 25 25 86q0 78 -39 121q-27 31 -68 31z" />
    <glyph glyph-name="scaron" unicode="&#x161;" horiz-adv-x="2048" 
d="M932 174q82 98 82 275q0 215 -119 335q-102 103 -246 103q-121 0 -231 -94v-619h514zM1534 174q90 111 90 279q0 215 -121 335q-102 103 -246 103q-69 0 -135 -33q133 -131 133 -323q0 -201 -143 -361h422zM1688 164q84 -3 152 -32.5t113 -78t67 -110.5t22 -136
q0 -177 -125 -348q-52 -69 -137.5 -111t-196.5 -42q-85 0 -176 26q-39 2 -86 55.5t-47 131.5q0 39 14 80l178 196q-12 -39 -12 -90q0 -82 33 -149t102 -88q66 -21 125 -21q97 0 142 63t45 187q-3 68 -39 139t-107 117.5t-170 46.5h-1382l-2 594q0 164 -6 201q-5 39 -31 55
q-23 16 -55 16q-23 0 -93 -18l-16 37l358 121h60v-140q82 72 164 105q82 35 184 35q172 0 303 -103q53 43 123 72q82 35 184 35q199 0 342 -138q146 -133 146 -333q0 -101 -41 -187q-39 -84 -135 -188z" />
    <glyph glyph-name="guilsinglright" unicode="&#x203a;" horiz-adv-x="870" 
d="M737 1798h47v-2412l-268 -131v45l49 36v2151l-2 92l-22 49l-66 8l-24 -10l-35 25zM233 -1233q-11 -86 -60 -125t-118 -39q-50 0 -93 19t-58 45q-14 24 -23.5 43t-14.5 37.5t-5 44.5q3 83 34 138.5t85 102.5q45 40 69 56t66 37t88 47v2144l-2 92l-23 49l-65 8l-74 -32
l-25 28l361 166l47 -41v-2378q0 -1 -72 -31.5t-154 -81.5t-147 -124q-43 -54 -43 -113q0 -50 29.5 -85t66.5 -36q24 3 47 18t43.5 33.5t26.5 18.5q11 0 14 -41z" />
    <glyph glyph-name="oe" unicode="&#x153;" horiz-adv-x="682" 
d="M45 1380v41q154 -73 254 -176q143 -145 221 -342q78 -196 78 -409q0 -312 -152 -566q-153 -256 -401 -366v37q125 69 205 188q78 117 119 299q37 180 37 377q0 213 -33 389q-27 137 -64 221q-37 82 -98 160q-64 78 -166 147z" />
    <glyph glyph-name="u009D" horiz-adv-x="1331" 
d="M852 307q-32 -121 -83.5 -180t-106.5 -59q-65 0 -118.5 68t-68.5 171q-110 121 -110 215q0 54 38 93t100 58t134 19q83 0 155.5 -22.5t119 -66t46.5 -103.5q0 -90 -106 -193zM561 541q-30 -1 -46.5 -17.5t-16.5 -40.5q0 -20 14.5 -35t40.5 -14q33 1 51.5 18t18.5 37
t-16 34.5t-46 17.5zM762 537q-30 -1 -47 -17.5t-17 -40.5q0 -20 15 -35t41 -14q34 1 51.5 17.5t17.5 37.5q0 18 -16.5 33.5t-44.5 18.5zM659 406q-29 -1 -46 -18t-17 -40q0 -20 14.5 -35t40.5 -14q33 1 51.5 18t18.5 37q0 18 -17 33.5t-45 18.5zM53 705l37 57q3 31 18.5 49
t34.5 18q45 0 45 -79l197 -95q-61 -27 -61 -102l-193 94q-34 -33 -65 -33q-19 0 -30 11t-11 28q0 28 28 52zM1198 788l31 -61q37 -26 37 -57q0 -19 -13 -32t-32 -13q-26 0 -52 22l-180 -123q0 43 -13.5 66t-43.5 39l178 121q-4 12 -4 34q0 29 12.5 44.5t30.5 15.5
q16 0 30.5 -14.5t18.5 -41.5zM438 266l-209 -131q4 -12 4 -35q0 -28 -12.5 -43.5t-30.5 -15.5q-40 0 -49 55l-30 62q-37 25 -37 57q0 18 12.5 31.5t32.5 13.5q26 0 51 -22l197 127zM958 375l195 -117q32 27 64 27q20 0 31.5 -10.5t11.5 -28.5q0 -27 -33 -51l-43 -54
q-4 -31 -21 -46t-35 -15q-16 0 -30.5 14.5t-14.5 38.5q0 19 4 29l-206 121z" />
    <glyph glyph-name="Ydieresis" unicode="&#x178;" 
d="M-455 -702q-12 -11 -26 -11q-19 0 -19 19q0 8 6 20l252 295q20 24 60 55q25 19 49 21q27 0 43 -12q12 -15 16 -41q0 -19 -24 -52q-15 -20 -58 -53z" />
    <glyph glyph-name="nonbreakingspace" unicode="&#xa0;" horiz-adv-x="614" 
 />
    <glyph glyph-name="exclamdown" unicode="&#xa1;" horiz-adv-x="922" 
d="M-414 0l201 205l213 -2q73 6 121 100.5t90.5 187t123.5 163.5t234 83q88 0 166 -54.5t125 -145.5t47 -191q0 -97 -45 -186q-31 -60 -94.5 -128t-139.5 -113.5t-143 -45.5q-10 0 -34 4q-40 2 -88 43t-48 111q0 33 13 71l121 131q-7 -20 -7 -40q0 -65 44 -121t83 -56
q26 -4 35 -4q75 0 114.5 54t39.5 129q3 39 -13 81q-19 57 -70 114.5t-111 93.5t-105 36q-91 -3 -139.5 -63t-120 -191.5t-151 -198.5t-220.5 -67h-242z" />
    <glyph glyph-name="cent" unicode="&#xa2;" horiz-adv-x="973" 
d="M-127 1008q159 0 255 -1t191.5 -4t245.5 -14q103 -7 191 -68.5t139 -162t51 -211.5q0 -80 -28 -162q-48 -135 -129.5 -211t-186.5 -76q-65 0 -147 37q-67 29 -103.5 80t-36.5 111q0 44 21 88l125 86q-8 -25 -8 -60q0 -67 33.5 -125t86.5 -77q53 -27 99 -27q68 0 107.5 59
t39.5 156q0 21 -4 61q-8 62 -53.5 128.5t-108 114t-125.5 56.5q-88 14 -198 18.5t-289 4.5h-260q-47 -2 -100 -2z" />
    <glyph glyph-name="sterling" unicode="&#xa3;" horiz-adv-x="819" 
d="M188 209q32 0 50.5 -0.5t40.5 -1.5q224 0 323.5 35.5t99.5 91.5q0 40 -45 80t-112.5 67t-126.5 27q-108 0 -230 -299zM-520 0l201 209h401q20 33 68 129t89 162t100.5 121t135.5 75q105 0 181 -40t116.5 -108t40.5 -147q0 -103 -70 -197t-221 -154t-375 -60
q-13 1 -25 1.5t-32 0.5q-68 -155 -112.5 -243t-113 -172t-172.5 -142t-253 -74q-58 3 -127.5 39t-69.5 111q0 26 8 51l201 205q-4 -18 -4 -27q0 -58 66.5 -104t113.5 -46q73 0 130 39.5t99.5 99.5t83 144t60.5 127h-520z" />
    <glyph glyph-name="currency" unicode="&#xa4;" horiz-adv-x="1024" 
d="M795 1020l143 141l57 -57l-143 -141q102 -132 102 -281q0 -154 -102 -285l143 -143l-57 -55l-143 143q-136 -104 -271 -104q-88 0 -172 30q-84 31 -123 74l-145 -143l-57 55l143 143q-102 117 -102 283q0 158 102 283l-143 141l57 57l145 -141q52 45 131 74q80 26 154 26
q70 0 145 -24q76 -27 136 -76zM512 1040q-152 0 -256 -106q-106 -107 -106 -256q0 -148 106 -254.5t256 -106.5q147 0 256 109q106 106 106 254q0 90 -49 178t-135 135t-178 47z" />
    <glyph glyph-name="yen" unicode="&#xa5;" horiz-adv-x="973" 
d="M164 0h-332l152 205h254q23 36 68 135.5t81 164.5t92 120.5t131 74.5q108 0 188.5 -43t122.5 -114.5t42 -153.5q0 -73 -35 -142t-109.5 -125.5t-193 -90t-275.5 -33.5q-57 0 -88 2q-68 -147 -136 -272t-166.5 -253t-229.5 -218.5t-287 -108.5q-62 0 -129.5 38t-67.5 112
q0 27 9 51l200 205q-4 -18 -4 -27q0 -58 66.5 -104t113.5 -46q93 0 201.5 106.5t198 251.5t133.5 265zM344 205q102 -4 141 -4q192 0 281.5 33t89.5 83q0 39 -46.5 82.5t-114.5 72t-126 28.5q-63 0 -119 -85t-106 -210z" />
    <glyph glyph-name="brokenbar" unicode="&#xa6;" horiz-adv-x="2017" 
d="M420 840q-101 -109 -103 -289q0 -213 123 -332q101 -102 244 -104q102 0 236 114v611h-500zM1139 786l-2 -1292l2 -86l20 -49l68 -8l71 33l25 -29l-186 -90l-168 -78h-49v960q-111 -92 -170 -114q-82 -33 -185 -33q-198 0 -340 135q-145 133 -145 330v4q0 100 41 197
q41 94 117 174h-236l127 159h414q184 -2 377 -2v514l-2 93l-21 49l-68 8l-71 -33l-25 29l187 90l172 76h45l2 -963q82 70 164 103q81 34 184 34q201 0 344 -135q145 -133 145 -332q0 -204 -149 -364q-58 -62 -121 -96q-64 -37 -137 -54q-74 -16 -162 -16l47 25l117 65l69 68
q95 108 95 288q0 213 -119 332q-103 103 -246 103q-121 0 -231 -95z" />
    <glyph glyph-name="section" unicode="&#xa7;" horiz-adv-x="2017" 
d="M1139 786l-2 -1292l2 -86l20 -49l68 -8l71 33l25 -29l-186 -90l-168 -78h-49v960q-111 -92 -170 -114q-82 -33 -185 -33q-198 0 -340 135q-69 66 -106 150q-39 86 -39 184q0 205 151 362q54 60 117 97q64 37 136.5 53t162.5 16l-45 -24l-119 -66l-65 -69
q-99 -107 -101 -287q0 -213 123 -332q101 -102 244 -104q102 0 236 114v1282l-2 93l-21 49l-68 8l-71 -33l-25 29l187 90l172 76h45l2 -963q82 70 164 103q81 34 184 34q201 0 344 -135q145 -133 145 -332q0 -204 -149 -364q-58 -62 -121 -96q-64 -37 -137 -54
q-74 -16 -162 -16l47 25l117 65l69 68q95 108 95 288q0 213 -119 332q-103 103 -246 103q-121 0 -231 -95z" />
    <glyph glyph-name="dieresis" unicode="&#xa8;" 
d="M-459 -385q76 0 123 -47q41 -43 41 -98q0 -41 -22 -78q-23 -41 -60 -60q-39 -20 -88 -20q-76 0 -123 49q-39 43 -39 100q0 39 25 78q22 39 61 60q37 16 82 16zM-471 -403q-21 0 -41 -11q-18 -10 -33 -35q-12 -24 -12 -63q0 -63 31 -109q28 -47 80 -47q34 0 59 27
q22 25 22 86q0 78 -38 121q-25 31 -68 31z" />
    <glyph glyph-name="copyright" unicode="&#xa9;" 
d="M-276 -385q75 0 122 -47q41 -43 41 -98q0 -41 -22 -78q-23 -41 -60.5 -60.5t-87.5 -19.5q-75 0 -123 49q-38 43 -38 100q0 39 22 78q25 39 64 60q36 16 82 16zM-289 -403q-20 0 -41 -11q-18 -10 -32 -35q-13 -24 -13 -63q0 -63 31 -109q29 -47 80 -47q35 0 57 27
q25 25 25 86q0 78 -39 121q-27 31 -68 31z" />
    <glyph glyph-name="ordfeminine" unicode="&#xaa;" 
d="M-729 1681q0 -43 -31 -73q-33 -33 -76 -33q-41 0 -73.5 32.5t-32.5 73.5t32.5 74t73.5 33q43 0 76 -31q31 -33 31 -76zM-1040 1681q0 -43 -31 -73q-33 -33 -76 -33q-41 0 -72 33q-32 30 -32 73q0 41 30 74q31 33 74 33t76 -31q31 -33 31 -76zM-881 1432q0 -43 -30 -74
q-33 -33 -76 -33q-41 0 -72 33q-33 31 -33 74q0 41 31 73q31 33 74 33t76 -31q30 -32 30 -75z" />
    <glyph glyph-name="guillemotleft" unicode="&#xab;" horiz-adv-x="512" 
d="M424 1819v-457l-152 -70l-8 29l51 33v354l-10 25l-20 2l-2 18zM119 1393v262l-10 24l-21 2l-2 19l141 65v-358l-114 -49l-11 20z" />
    <glyph glyph-name="logicalnot" unicode="&#xac;" horiz-adv-x="1024" 
d="M958 438q-49 -129 -116 -194q-68 -68 -160 -68q-55 0 -129 29q-82 35 -111 47q-28 10 -73 10q-99 0 -285 -98q10 29 43 90q33 59 105.5 118.5t170.5 59.5q76 0 170 -47q91 -47 156 -47q94 0 229 100zM958 848q-49 -129 -116.5 -195.5t-159.5 -66.5q-55 0 -129 28
q-82 35 -111 48q-28 10 -73 10q-99 0 -285 -99q10 29 43 91q33 59 106 118q72 60 170 60q76 0 170 -47q91 -47 156 -47q94 0 229 100z" />
    <glyph glyph-name="softhyphen" unicode="&#xad;" 
d="M-360 1681q0 -43 -31 -73q-33 -33 -76 -33q-41 0 -74 33q-32 32 -32 73t32 74q33 33 74 33q43 0 76 -31q31 -33 31 -76zM-672 1681q0 -43 -30 -73q-33 -33 -76 -33q-41 0 -72 33q-33 30 -33 73q0 41 31 74t74 33t76 -31q30 -33 30 -76zM-512 1432q0 -43 -31 -74
q-32 -33 -75 -33q-41 0 -72 33q-33 31 -33 74q0 41 31 73q30 33 74 33q43 0 74.5 -31.5t31.5 -74.5z" />
    <glyph glyph-name="registered" unicode="&#xae;" horiz-adv-x="909" 
d="M455 319h-41q6 127 30 209q25 82 103 230q59 112 78 174q18 59 18 123q0 127 -68 200q-67 76 -165 76q-88 0 -138.5 -41t-50.5 -90q0 -37 31 -90t31 -82q0 -37 -25 -59q-22 -27 -55 -27q-41 0 -76 43q-35 41 -35 115q0 112 96 200q99 86 265 86q204 0 303 -118
q71 -88 71 -197q0 -72 -32 -149q-33 -76 -123 -181q-146 -163 -178 -231q-33 -70 -39 -191zM440 197q47 0 80 -33t33 -80q0 -45 -35 -78q-33 -33 -78 -33q-47 0 -78.5 33t-31.5 78q0 47 31.5 80t78.5 33z" />
    <glyph glyph-name="macron" unicode="&#xaf;" 
d="M-201 1677q0 -43 -30 -73q-33 -33 -76 -33q-41 0 -74 32.5t-33 73.5t33 74t74 33q43 0 76 -31q30 -33 30 -76zM-512 1677q0 -43 -31 -73q-32 -33 -75 -33q-41 0 -72 33q-33 30 -33 73q0 41 30.5 74t74.5 33q43 0 75 -31q31 -33 31 -76zM-352 1432q0 -43 -31 -74
q-33 -33 -76 -33q-41 0 -71 33q-33 31 -33 74q0 41 31 73q30 33 73 33t76 -31q31 -32 31 -75z" />
    <glyph glyph-name="degree" unicode="&#xb0;" 
d="M-461 565q74 -14 105 -20q30 -4 67 -4q43 0 76 8q35 6 94 29q-26 -74 -80 -119q-55 -47 -161 -47q-60 0 -123 14q-129 27 -213 27q-109 0 -205 -43q53 96 110 135q58 37 162 37q72 0 168 -17z" />
    <glyph glyph-name="plusminus" unicode="&#xb1;" horiz-adv-x="410" 
d="M256 1679q31 -32 31 -75t-31 -74q-33 -33 -76 -33q-41 0 -74.5 33t-33.5 74t32 73l228 185l37 -52z" />
    <glyph glyph-name="twosuperior" unicode="&#xb2;" horiz-adv-x="410" 
d="M164 1536q-35 33 -35 72q0 41 35 73q33 33 74 33q43 0 74.5 -31.5t31.5 -74.5t-31 -72l-233 -170l-33 41z" />
    <glyph glyph-name="threesuperior" unicode="&#xb3;" horiz-adv-x="1331" 
d="M1313 547q-4 -94 -33 -187q-33 -90 -82 -165q-51 -76 -108 -129q-80 -74 -152 -117q-70 -45 -129 -70q-61 -24 -133 -43q-72 -18 -164 -39q-4 0 -59 -10q-56 -8 -78 -14q-23 -9 -43 -23q53 2 102 2q117 0 385 -24q105 -11 203 -11q180 0 305 35q125 37 172 94
q-4 -102 -45 -172q-22 -36 -61 -65q-41 -31 -103 -43q-127 -29 -278 -29q-123 0 -394 29q-67 8 -157 16q-92 8 -178 8q-297 0 -471 -96q12 62 51 115q41 51 84 84q71 51 229 61q41 33 152 70q145 20 299 92q123 59 194 125q72 65 103 113q28 47 67 120q29 60 47 166
q0 211 -133 361q-133 151 -362 151q-150 0 -254 -57q-139 -74 -226 -227l-38 14q20 76 51 135q28 60 71 109t103 92q86 63 194 96q111 33 230 33q139 0 248 -39q110 -41 202 -123q189 -168 189 -438z" />
    <glyph glyph-name="acute" unicode="&#xb4;" 
d="M-233 498q0 -43 -31 -74q-33 -33 -76 -33q-41 0 -74 33q-32 33 -32 74t32 73q33 33 74 33q43 0 76 -31q31 -32 31 -75zM-545 498q0 -43 -30 -74q-33 -33 -76 -33q-41 0 -72 33q-33 31 -33 74q0 41 31 73q31 33 74 33t76 -31q30 -32 30 -75z" />
    <glyph glyph-name="mu" unicode="&#xb5;" 
d="M-63 1651q0 -35 -27 -64q-29 -28 -64 -28q-34 0 -61 28q-29 27 -29 64q0 32 27 61t63 29q35 0 64 -27q27 -28 27 -63zM-303 1655q0 -35 -27 -64q-28 -28 -63 -28t-62.5 27.5t-27.5 64.5q0 33 26 61q27 29 64 29q35 0 62.5 -27.5t27.5 -62.5zM-188 1419q0 -35 -27 -63
q-29 -29 -64 -29q-34 0 -61 29q-29 26 -29 63q0 33 27 61.5t63 28.5q35 0 64 -26q27 -29 27 -64z" />
    <glyph glyph-name="paragraph" unicode="&#xb6;" horiz-adv-x="922" 
d="M741 1300v-1742h-57v1742h-152v-1742h-57v1042q-153 8 -229 51q-74 43 -115 131t-41 199t35 180q47 96 125 145.5t201 49.5h397v-56h-107z" />
    <glyph glyph-name="periodcentered" unicode="&#x2219;" horiz-adv-x="614" 
d="M315 788q47 0 80 -30q31 -33 31 -80q0 -45 -31 -78q-35 -33 -80 -33t-77.5 33t-32.5 78q0 47 33 80q32 30 77 30z" />
    <glyph glyph-name="cedilla" unicode="&#xb8;" 
d="M-897 426l66 123h696l-58 -123h-704z" />
    <glyph glyph-name="onesuperior" unicode="&#xb9;" horiz-adv-x="573" 
d="M276 106q5 -12 5 -34q0 -39 -15 -101q-16 -61 -43 -110q-24 -51 -51 -70l-2 209q-41 0 -74 33t-33 73q0 41 33 74t74 33q43 0 76 -31q30 -30 30 -76z" />
    <glyph glyph-name="ordmasculine" unicode="&#xba;" horiz-adv-x="573" 
d="M276 106q0 -43 -30 -73q-33 -33 -76 -33q-41 0 -74 33t-33 73q0 41 33 74t74 33q43 0 76 -31q30 -32 30 -76z" />
    <glyph glyph-name="guillemotright" unicode="&#xbb;" horiz-adv-x="512" 
d="M424 139v-456l-152 -70l-8 29l51 32v355l-10 24l-20 2l-2 19zM119 -287v262l-10 25l-21 2l-2 18l141 66v-358l-114 -50l-11 21z" />
    <glyph glyph-name="onequarter" unicode="&#xbc;" horiz-adv-x="1331" 
d="M1145 815h-64h-112q-197 0 -351 -4q-153 -6 -192 -25v-786h-307v41l90 45v504q0 162 -6 198q-4 39 -31 56q-22 16 -55 16q-15 0 -70 -14l-16 37l336 114h59v-137q82 70 164 103q117 49 555 49h182l-135 -197h-47z" />
    <glyph glyph-name="onehalf" unicode="&#xbd;" horiz-adv-x="614" 
d="M422 98l88 -45v-53h-404l3 43l94 51v1403l-2 92l-23 49l-65 9l-74 -33l-25 28l189 91l172 75h47v-1710z" />
    <glyph glyph-name="threequarters" unicode="&#xbe;" horiz-adv-x="1331" 
d="M1180 8q-54 -34 -129 -48.5t-164 -14.5q-72 0 -141 6t-171 17.5t-183 18.5t-154 7q-150 0 -238 -35l188 213q113 51 228 51q82 0 166 -26q247 121 362 244t115 231q0 83 -61 150t-161.5 104t-213.5 37q-164 0 -300.5 -79t-197.5 -239l-35 14q26 131 81.5 224t132 152
t164 86.5t185.5 27.5q112 0 218.5 -33.5t194.5 -94t137.5 -139.5t49.5 -165q0 -139 -143 -277.5t-451 -251.5q183 -26 295 -26q48 0 107 5t125.5 15t140.5 21z" />
    <glyph glyph-name="questiondown" unicode="&#xbf;" horiz-adv-x="1331" 
d="M145 395l686 723q127 135 127 275q0 88 -61 182q-113 80 -219 80q-70 0 -133 -29q-66 -29 -119 -90q12 53 76 131q47 62 119 98q71 37 153 37q86 0 168 -39q62 -39 111 -102.5t49 -161.5q0 -80 -41 -172q-45 -98 -141 -203l-215 -235l405 -754l25 -49l65 -6l74 35l24 -29
l-184 -92l-92 -41h-51l-70 61l-381 682l-254 -258q-55 -55 -55 -147q0 -74 35 -139q35 -68 78 -95q79 -51 155 -51q88 0 211 68q-45 -76 -131 -129.5t-186 -53.5q-125 0 -242 89q-78 73 -78 172q0 51 24.5 117.5t67.5 125.5z" />
    <glyph glyph-name="Agrave" unicode="&#xc0;" horiz-adv-x="1024" 
d="M424 1106q97 44 172 108t117.5 133t42.5 123q0 49 -34 77t-104 28q-78 0 -194 -39v-430zM426 401q98 72 172 161.5t115 179t41 161.5q0 68 -39 107t-119 39q-67 0 -172 -33zM424 328l2 -262l-315 -152l-19 41l98 49v1622h-188l86 189h336v-213q50 45 115 67.5t127 22.5
q74 0 140 -28t105 -77.5t39 -109.5q0 -41 -19 -84t-61.5 -88.5t-107.5 -90.5t-164 -92q171 0 263.5 -52.5t92.5 -145.5q0 -113 -133 -266.5t-397 -329.5z" />
    <glyph glyph-name="Aacute" unicode="&#xc1;" horiz-adv-x="614" 
d="M397 1163q-98 -73 -98 -223q0 -147 94 -278q70 -99 101 -175q30 -75 30 -143q0 -92 -51 -184t-186 -283l-37 27q80 159 80 264q0 72 -25.5 125t-107.5 199q-54 96 -78 170q-25 71 -25 135q0 100 64 194q61 92 198 213z" />
    <glyph glyph-name="Acircumflex" unicode="&#xc2;" horiz-adv-x="1331" 
d="M1294 690q-67 -102 -127 -158q-57 -57 -112 -79q-58 -25 -117 -25q-41 0 -107 16q-65 15 -124 31q-62 17 -127 29q-66 10 -144 10q-196 0 -411 -92q112 156 215 217q104 61 217 61q57 0 118 -12q60 -10 150 -31q86 -20 139 -30q51 -11 121 -11q158 0 309 74z" />
    <glyph glyph-name="Atilde" unicode="&#xc3;" horiz-adv-x="573" 
d="M287 838q0 -43 -31 -74q-33 -33 -76 -33q-41 0 -74 33q-32 33 -32 74t32 73q33 33 74 33q43 0 76 -31q31 -32 31 -75zM276 106q5 -12 5 -34q0 -39 -17 -101q-14 -61 -41 -110q-24 -51 -51 -70l-2 209q-41 0 -74 33t-33 73q0 41 33 74t74 33q43 0 76 -31q30 -30 30 -76z
" />
    <glyph glyph-name="Adieresis" unicode="&#xc4;" horiz-adv-x="1331" 
d="M915 199v481q0 61 -43 125q-36 57 -98 86q-61 29 -119 29q-110 0 -196 -80q-56 -52 -92 -154q-39 -102 -39 -190q4 -101 32 -170q27 -72 84 -127h471zM928 0h-901l155 199h39q-49 47 -76 112q-26 68 -26 142q4 202 155 364q152 166 396 166q51 0 96 -10q45 -12 86 -33
q39 -20 72 -49v129l309 -2v-41l-88 -51v-1430l4 -94l20 -49l68 -8l72 32l24 -28l-188 -92l-170 -78h-45z" />
    <glyph glyph-name="Aring" unicode="&#xc5;" horiz-adv-x="922" 
d="M463 453q-75 -138 -172 -138q-51 0 -94 37.5t-45 65.5q-5 14 -5 43q0 65 35.5 136t96.5 132q38 36 109.5 66t148.5 36q79 0 148.5 -31t120.5 -84.5t79 -123.5t28 -148q0 -93 -41 -178q-42 -88 -153.5 -170.5t-325.5 -95.5h-565h-348l201 209h319h397h43q180 0 252 34
t72 101q0 41 -19 86q-22 56 -79 117t-122.5 101t-109.5 40q-89 0 -128.5 -40t-39.5 -116q0 -36 33 -62t92 -26q37 0 72 9z" />
    <glyph glyph-name="AE" unicode="&#xc6;" horiz-adv-x="922" 
d="M508 1497q-62 -12 -96.5 -60.5t-34.5 -115.5q0 -59 29 -125q-31 -6 -56 -6q-63 0 -100 33t-37 86q0 49 30 98.5t91.5 93.5t152.5 70q37 6 74 6q83 0 149 -25t113 -69.5t71 -100t24 -118.5q0 -69 -29 -133t-90 -119q-96 -103 -283.5 -152t-368.5 -49l-466 -2l163 199h377
q165 0 260.5 6.5t161.5 34.5q32 11 52 34t30 55t10 72q0 69 -28 135t-80 109t-119 43z" />
    <glyph glyph-name="Ccedilla" unicode="&#xc7;" horiz-adv-x="682" 
d="M360 358h-38l-86 811q-7 54 -7 78q0 64 33 103q33 36 80 36t80 -36q33 -39 33 -113q0 -25 -4 -68zM340 193q45 0 80 -31q33 -33 33 -78q0 -47 -33 -80q-35 -33 -80 -33t-78 33t-33 80q0 45 33 78q33 31 78 31z" />
    <glyph glyph-name="Egrave" unicode="&#xc8;" 
d="M-889 -535q0 -43 -31 -73q-32 -33 -75 -33q-41 0 -74 33t-33 73q0 41 33 74t74 33q43 0 75 -31q31 -33 31 -76z" />
    <glyph glyph-name="Eacute" unicode="&#xc9;" 
d="M-512 -535q0 -43 -31 -73q-32 -33 -75 -33q-41 0 -74 33t-33 73q0 41 33 74t74 33q43 0 75 -31q31 -33 31 -76z" />
    <glyph glyph-name="Ecircumflex" unicode="&#xca;" 
d="M-354 -535q0 -43 -31 -73q-33 -33 -76 -33q-41 0 -71 33q-33 30 -33 73q0 41 30 74q31 33 74 33t76 -31q31 -33 31 -76z" />
    <glyph glyph-name="Edieresis" unicode="&#xcb;" 
d="M-172 -535q0 -43 -31 -73q-33 -33 -76 -33q-40 0 -73 33t-33 73q0 41 33 74t73 33q43 0 76 -31q31 -33 31 -76z" />
    <glyph glyph-name="Igrave" unicode="&#xcc;" 
d="M-729 -535q0 -43 -31 -73q-33 -33 -76 -33q-41 0 -73.5 33t-32.5 73q0 41 32.5 74t73.5 33q43 0 76 -31q31 -33 31 -76zM-1040 -535q0 -43 -31 -73q-33 -33 -76 -33q-41 0 -72 33q-32 30 -32 73q0 41 30 74q31 33 74 33t76 -31q31 -33 31 -76z" />
    <glyph glyph-name="Iacute" unicode="&#xcd;" 
d="M-352 -535q0 -43 -31 -73q-33 -33 -76 -33q-41 0 -73.5 33t-32.5 73q0 41 32.5 74t73.5 33q43 0 76 -31q31 -33 31 -76zM-664 -535q0 -43 -30 -73q-33 -33 -76 -33q-41 0 -72 33q-32 30 -32 73q0 41 30 74q31 33 74 33t76 -31q30 -33 30 -76z" />
    <glyph glyph-name="Icircumflex" unicode="&#xce;" 
d="M-197 -535q0 -43 -30 -73q-33 -33 -76 -33q-41 0 -74 33t-33 73q0 41 33 74t74 33q43 0 76 -31q30 -33 30 -76zM-508 -535q0 -43 -31 -73q-32 -33 -75 -33q-41 0 -72 33q-33 30 -33 73q0 41 31 74t74 33t75 -31q31 -33 31 -76z" />
    <glyph glyph-name="Idieresis" unicode="&#xcf;" 
d="M-63 -537q0 -34 -27 -63q-29 -29 -64 -29q-34 0 -61 29q-29 27 -29 63q0 33 27 62t63 29q35 0 64 -27q27 -29 27 -64zM-303 -532q0 -35 -27.5 -64t-62.5 -29t-62 29q-28 27 -28 64q0 32 26 61q27 29 64 29q35 0 63 -27q27 -29 27 -63z" />
    <glyph glyph-name="Eth" unicode="&#xd0;" 
d="M-729 -535q0 -43 -31 -73q-33 -33 -76 -33q-41 0 -73.5 33t-32.5 73q0 41 32.5 74t73.5 33q43 0 76 -31q31 -33 31 -76zM-1040 -535q0 -43 -31 -73q-33 -33 -76 -33q-41 0 -72 33q-32 30 -32 73q0 41 30 74q31 33 74 33t76 -31q31 -33 31 -76zM-893 -780q0 -43 -31 -74
q-32 -33 -75 -33q-41 0 -74 33t-33 74t33 73q33 33 74 33q43 0 74.5 -31.5t31.5 -74.5z" />
    <glyph glyph-name="Ntilde" unicode="&#xd1;" 
d="M-352 -535q0 -43 -31 -73q-33 -33 -76 -33q-41 0 -73.5 33t-32.5 73q0 41 32.5 74t73.5 33q43 0 76 -31q31 -33 31 -76zM-664 -535q0 -43 -30 -73q-33 -33 -76 -33q-41 0 -72 33q-32 30 -32 73q0 41 30 74q31 33 74 33t76 -31q30 -33 30 -76zM-508 -780q0 -43 -31 -74
q-32 -33 -75 -33q-41 0 -74 33t-33 74t33 73q33 33 74 33q43 0 74.5 -31.5t31.5 -74.5z" />
    <glyph glyph-name="Ograve" unicode="&#xd2;" 
d="M-197 -535q0 -43 -30 -73q-33 -33 -76 -33q-41 0 -74 33t-33 73q0 41 33 74t74 33q43 0 76 -31q30 -33 30 -76zM-508 -535q0 -43 -31 -73q-32 -33 -75 -33q-41 0 -72 33q-33 30 -33 73q0 41 31 74t74 33t75 -31q31 -33 31 -76zM-352 -780q0 -43 -31 -74q-33 -33 -76 -33
q-41 0 -73.5 33t-32.5 74t33 73q32 33 73 33q43 0 76 -31q31 -32 31 -75z" />
    <glyph glyph-name="Oacute" unicode="&#xd3;" 
d="M-63 -537q0 -34 -27 -63q-29 -29 -64 -29q-34 0 -61 29q-29 27 -29 63q0 33 27 62t63 29q35 0 64 -27q27 -29 27 -64zM-303 -532q0 -35 -27.5 -64t-62.5 -29t-62 29q-28 27 -28 64q0 32 26 61q27 29 64 29q35 0 63 -27q27 -29 27 -63zM-182 -762q0 -35 -27 -63
q-29 -29 -63 -29q-35 0 -62 29q-28 26 -28 63q0 33 26 62q27 28 64 28q34 0 63 -26q27 -29 27 -64z" />
    <glyph glyph-name="Ocircumflex" unicode="&#xd4;" 
d="M-729 1432q0 -43 -31 -74q-33 -33 -76 -33q-41 0 -73.5 33t-32.5 74t33 73q32 33 73 33q43 0 76 -31q31 -32 31 -75zM-1040 1432q0 -43 -31 -74q-33 -33 -76 -33q-41 0 -72 33q-32 31 -32 74q0 41 30 73q31 33 74 33t76 -31q31 -32 31 -75z" />
    <glyph glyph-name="Otilde" unicode="&#xd5;" 
d="M-360 1432q0 -43 -31 -74q-33 -33 -76 -33q-41 0 -74 33q-32 33 -32 74t32 73q33 33 74 33q43 0 76 -31q31 -32 31 -75zM-672 1432q0 -43 -30 -74q-33 -33 -76 -33q-41 0 -72 33q-33 31 -33 74q0 41 31 73q31 33 74 33t76 -31q30 -32 30 -75z" />
    <glyph glyph-name="Odieresis" unicode="&#xd6;" 
d="M-201 1432q0 -43 -30 -74q-33 -33 -76 -33q-41 0 -74 33t-33 74t33 73q33 33 74 33q43 0 76 -31q30 -32 30 -75zM-512 1432q0 -43 -31 -74q-32 -33 -75 -33q-41 0 -72 33q-33 31 -33 74q0 41 31 73q30 33 74 33q43 0 74.5 -31.5t31.5 -74.5z" />
    <glyph glyph-name="multiply" unicode="&#xd7;" 
d="M-63 1413q0 -35 -27 -63q-29 -29 -64 -29q-34 0 -61 29q-29 26 -29 63q0 33 27 61.5t63 28.5q35 0 64 -26q27 -29 27 -64zM-303 1417q0 -35 -27.5 -63.5t-62.5 -28.5t-62 29q-28 26 -28 63q0 33 26 62q27 28 64 28q35 0 63 -26q27 -29 27 -64z" />
    <glyph glyph-name="Oslash" unicode="&#xd8;" 
d="M-1262 1577l119 119l213 -209l156 143l29 -33l-283 -270z" />
    <glyph glyph-name="Ugrave" unicode="&#xd9;" 
d="M-885 1577l119 119l213 -209l156 143l28 -33l-282 -270z" />
    <glyph glyph-name="Uacute" unicode="&#xda;" 
d="M-725 1577l119 119l213 -209l155 143l29 -33l-283 -270z" />
    <glyph glyph-name="Ucircumflex" unicode="&#xdb;" 
d="M-496 1581l119 119l172 -201l135 148l29 -33l-250 -287z" />
    <glyph glyph-name="Udieresis" unicode="&#xdc;" 
d="M-1274 1380l291 312l238 -205l-115 -139l-197 163l-172 -168z" />
    <glyph glyph-name="Yacute" unicode="&#xdd;" 
d="M-889 1380l291 312l238 -205l-115 -139l-197 163l-172 -168z" />
    <glyph glyph-name="Thorn" unicode="&#xde;" 
d="M-729 1380l291 312l237 -205l-114 -139l-197 163l-172 -168z" />
    <glyph glyph-name="germandbls" unicode="&#xdf;" 
d="M-492 1376l250 316l209 -230l-119 -131l-163 180l-140 -172z" />
    <glyph glyph-name="agrave" unicode="&#xe0;" 
d="M-731 1337l-55 -14q-48 96 -115 178q-70 82 -111 107q-30 20 -63 20q-37 0 -58 -22q-20 -31 -20 -72q0 -27 2 -41l-29 -18q-6 10 -20 29.5t-25 37.5q-10 19 -14 39q0 55 8 84q8 31 31 49q59 53 125 53q53 0 106 -30q86 -70 135 -152q50 -82 103 -248z" />
    <glyph glyph-name="aacute" unicode="&#xe1;" 
d="M-362 1337l-56 -14q-47 94 -114 178q-70 82 -111 107q-33 20 -64 20q-38 0 -57 -22q-20 -31 -20 -72q0 -27 2 -41l-29 -18q-4 10 -20 30q-15 19 -25 37q-10 19 -14 39q0 55 10 84q6 31 29 49q59 53 124 53q54 0 107 -30q88 -70 135 -152q49 -82 103 -248z" />
    <glyph glyph-name="acircumflex" unicode="&#xe2;" 
d="M-203 1337l-55 -14q-49 98 -117 180q-67 80 -108 105q-33 20 -64 20q-39 0 -57 -22q-21 -33 -21 -72q0 -27 2 -41l-28 -18q-6 10 -19 26q-12 17 -24 37q-11 21 -17 43q0 55 9 84q8 31 30 49q60 53 125 53q53 0 107 -30q90 -72 137 -154q47 -80 100 -246z" />
    <glyph glyph-name="atilde" unicode="&#xe3;" 
d="M-63 1337l-56 -14q-67 137 -102 205q-35 65 -66 90q-45 31 -75 31q-33 0 -48 -39q-4 -13 -4 -21q0 -10 4 -22.5t11 -26.5q6 -12 14 -29l-61 -20q-21 33 -33 111q-4 16 -4 26q0 47 37 76q47 39 81 39q43 0 103 -35q55 -53 92 -113q35 -59 57 -118q23 -60 50 -140z" />
    <glyph glyph-name="adieresis" unicode="&#xe4;" 
d="M-852 -420l29 -47q-51 -45 -90 -80q-41 -37 -68 -67q-31 -31 -51.5 -66t-32.5 -78q-6 -18 -6 -35q0 -30 14 -61q17 -29 33 -39q10 -6 25 -6h8q51 0 98 47l37 -53q-31 -33 -98 -68q-37 -16 -72 -16t-66 18q-90 58 -90 154q0 35 8 63q31 72 68 123q37 49 96 99
q60 49 158 112z" />
    <glyph glyph-name="aring" unicode="&#xe5;" 
d="M-479 -420l28 -47q-36 -33 -84 -74q-47 -43 -75 -71q-29 -31 -49 -68q-23 -35 -33 -78q-6 -18 -6 -35q0 -30 16 -61q14 -29 31 -39q10 -6 24 -6h9q51 0 98 47l37 -53q-29 -33 -99 -68q-34 -16 -71 -16q-33 0 -66 18q-90 58 -90 154q0 35 8 63q33 72 68 123q37 49 96 98.5
t158 112.5z" />
    <glyph glyph-name="ae" unicode="&#xe6;" 
d="M-324 -416l29 -47q-51 -45 -90 -80q-41 -37 -70 -67q-28 -31 -49 -66q-20 -35 -33 -78q-6 -18 -6 -34q0 -31 15 -62q16 -29 32 -39q13 -8 25 -8q4 0 8 2q51 0 98 47l37 -53q-28 -33 -98 -68q-37 -16 -72 -16q-34 0 -65 18q-90 58 -90 154q0 35 8 63q31 70 67 121
q37 51 93 99q55 45 161 114z" />
    <glyph glyph-name="ccedilla" unicode="&#xe7;" 
d="M-135 -424l29 -47q-52 -45 -91 -80q-41 -37 -67 -67q-31 -31 -51.5 -66t-32.5 -78q-6 -18 -6 -35q0 -30 14 -59q16 -31 33 -41q10 -6 24 -6h9q51 0 98 47l37 -53q-31 -33 -99 -68q-34 -16 -71 -16q-33 0 -66 18q-90 57 -90 154q0 35 8 63q31 72 68 123q37 49 96 98
q60 50 158 113z" />
    <glyph glyph-name="egrave" unicode="&#xe8;" 
d="M-1407 1722q-10 -33 -10 -51q0 -15 8 -29q13 -16 55 -16q15 1 27.5 1.5t34.5 0.5q164 8 362 8q230 -4 379 -14q78 -9 78 -117q0 -50 -16 -112q-14 -52 -41 -109.5t-60 -102.5t-59 -61q30 47 57.5 111.5t34.5 111.5q0 52 -10 73.5t-37 25.5q-101 14 -342 14
q-175 0 -240.5 -0.5t-128.5 -1.5q-30 0 -46.5 -0.5t-35.5 -1.5q-45 0 -65 10q-18 11 -24.5 33t-6.5 78q2 31 24.5 74.5t61.5 74.5z" />
    <glyph glyph-name="eacute" unicode="&#xe9;" 
d="M-987 1745q-10 -26 -10 -51q0 -20 8 -31q12 -14 49 -14q17 1 31 1.5t37 0.5q126 6 315 6q173 0 324 -15q77 -9 77 -114q2 -21 -6 -70q-10 -58 -38 -126.5t-63 -118t-69 -70.5q31 48 57.5 108t34.5 109q0 54 -10 76t-37 26q-83 13 -301 17q-146 0 -200 -0.5t-107 -1.5
q-34 0 -51.5 -0.5t-38.5 -1.5q-36 0 -55 8t-26 32.5t-7 77.5q2 31 23.5 75.5t62.5 76.5z" />
    <glyph glyph-name="ecircumflex" unicode="&#xea;" 
d="M-754 1745q-10 -38 -10 -51q0 -31 27 -41q10 -4 35 -4q15 1 27.5 1.5t35.5 0.5q126 6 233 6q116 -4 254 -15q78 -8 78 -116q0 -48 -12 -96q-22 -91 -69 -174t-95 -113q29 43 55.5 103t34.5 106q4 14 4 41q0 61 -49 69q-78 13 -221 17q-111 0 -152 -0.5t-81 -1.5
q-36 0 -54.5 -0.5t-40.5 -1.5q-37 0 -49 6q-20 8 -28.5 31.5t-8.5 80.5q2 31 24.5 76t61.5 76z" />
    <glyph glyph-name="edieresis" unicode="&#xeb;" 
d="M-403 1737q-11 -36 -11 -54q0 -26 16 -34.5t44 -8.5q16 1 29.5 1.5t35.5 0.5q66 5 66 9v2h2q13 0 135 -11q40 -4 59 -35.5t19 -80.5q0 -65 -26.5 -145t-68.5 -147.5t-81 -90.5q35 53 64.5 126t29.5 124q0 61 -49 69q-73 13 -119 13q-12 0 -21 -1.5t-17.5 -3.5t-14.5 -2
q-32 0 -49 -0.5t-37 -1.5q-52 0 -73.5 21.5t-21.5 97.5q6 36 26.5 78.5t62.5 73.5z" />
    <glyph glyph-name="igrave" unicode="&#xec;" 
d="M-1667 1772l65 122h1418l-58 -122h-1425z" />
    <glyph glyph-name="iacute" unicode="&#xed;" 
d="M-1692 -760l66 123h1417l-57 -123h-1426z" />
    <glyph glyph-name="icircumflex" unicode="&#xee;" 
d="M-1040 1774l65 122h770l-57 -122h-778z" />
    <glyph glyph-name="idieresis" unicode="&#xef;" 
d="M-1040 -762l65 123h770l-57 -123h-778z" />
    <glyph glyph-name="eth" unicode="&#xf0;" horiz-adv-x="1178" 
d="M92 754q62 104 164 157q61 31 141 50q78 16 160 16q270 0 432 -166q133 -139 133 -311q0 -127 -80 -252q-84 -123 -217 -185q-133 -57 -284 -57q-154 0 -283 41t-154 119q7 37 37 61q29 25 66 25q41 0 78 -37q14 -39 65 -74q53 -32 119 -53q66 -18 113 -18q71 0 141 30
q70 33 113 113q43 78 43 203q0 198 -105 344q-104 145 -276 145q-101 -2 -164 -16q-68 -19 -117 -47q-51 -31 -125 -88z" />
    <glyph glyph-name="ntilde" unicode="&#xf1;" horiz-adv-x="1229" 
d="M137 481l21 393h-105l72 154h1046l-65 -160h-737l-21 -303q-2 -12 -2 -37q0 -155 94 -307q92 -145 242 -145q63 0 117 24q53 25 86 88q20 43 20 162q117 41 185 74q0 -53 -7 -90q-6 -37 -26 -76q-64 -125 -187 -188q-61 -35 -116.5 -50.5t-122.5 -15.5q-162 0 -277 72
q-86 76 -100 94q-107 129 -117 311z" />
    <glyph glyph-name="ograve" unicode="&#xf2;" horiz-adv-x="1741" 
d="M864 561q-2 -10 -2 -35q0 -153 99 -309q92 -145 241 -145q64 0 117 24q51 25 86 88q20 43 20 162q117 41 185 74q0 -60 -4 -92q-7 -35 -29 -74q-64 -125 -186 -188q-64 -35 -117 -50q-55 -16 -123 -16q-162 0 -277 72q-53 -39 -110 -56q-57 -16 -131 -16q-236 0 -377 166
q-117 139 -117 291v10v10l23 393h-105l72 154h1563l-66 -160l-741 2zM819 113q-2 2 -45 53q-102 123 -123 311l21 387h-299l-23 -303v-37q0 -157 94 -307q91 -145 240 -145q55 0 76 6q18 6 59 35z" />
    <glyph glyph-name="oacute" unicode="&#xf3;" horiz-adv-x="2253" 
d="M639 477l20 387h-299l-18 -303q-2 -12 -2 -37q0 -157 92 -307q90 -145 240 -145q53 0 73 6q23 6 62 35q-8 8 -29 22q-18 17 -26 25q-103 125 -113 317zM1184 72q59 0 85.5 6t82.5 35q-25 20 -52 53q-106 131 -116 311l20 389h-332l-20 -305v-39q0 -157 90 -305
q94 -145 242 -145zM1931 184q21 43 21 162q45 16 86 33q41 14 98 41q0 -60 -4 -92q-6 -35 -29 -74q-63 -125 -186 -188q-64 -35 -117 -50.5t-123 -15.5q-159 0 -276 72q-127 -72 -275 -72q-147 0 -264 72q-55 -39 -110 -56q-58 -16 -131 -16q-236 0 -377 166
q-115 139 -115 291v10v10l23 393h-107l72 154h2101l-66 -160h-735l-20 -303v-39q0 -84 22 -157q25 -76 68 -148q92 -145 242 -145q63 0 114 24q53 25 88 88z" />
    <glyph glyph-name="ocircumflex" unicode="&#xf4;" horiz-adv-x="1382" 
d="M422 -369q0 -96 29 -180q26 -84 79 -160q105 -145 287 -145q109 0 176 20q88 27 119 93q16 18 23 47q4 26 10 82q4 53 4 57q27 0 55 10q29 10 74 33q45 18 68 27q0 -121 -33 -187q-74 -123 -213 -188q-62 -31 -160 -47q-96 -19 -182 -19q-88 0 -162 21q-92 22 -150 55
q-63 39 -118 96q-60 64 -88 164q-31 103 -37 209v1878l-2 92l-23 49l-65 9l-74 -33l-25 28l189 91l172 75h47v-2177z" />
    <glyph glyph-name="otilde" unicode="&#xf5;" horiz-adv-x="1741" 
d="M422 -369q0 -96 29 -180q26 -84 79 -160q105 -145 277 -145q90 0 155.5 19.5t100.5 93.5q14 18 20 47q7 26 11 82q4 53 4 57q26 0 55 10q31 10 76 33q45 18 67 27q0 -121 -34 -187q-72 -123 -213 -188q-134 -66 -301 -66q-89 0 -162 21q-74 18 -140 55q-63 39 -118 96
q-60 64 -88 164q-31 103 -37 209v1878l-2 92l-23 49l-65 9l-74 -33l-25 28l189 91l172 75h47v-784h1249l-65 -160l-742 2l-20 -305v-35q0 -151 96 -309q92 -145 242 -145q61 0 114 24q54 25 88 88q21 43 21 162q123 43 184 74q0 -60 -6 -92q-4 -35 -27 -74
q-63 -125 -186 -188q-63 -35 -117.5 -50.5t-122.5 -15.5q-159 0 -276 72q-6 10 -45 45q-41 33 -55 49q-105 125 -123 311l20 387h-229v-1233z" />
    <glyph glyph-name="odieresis" unicode="&#xf6;" horiz-adv-x="2253" 
d="M1167 72q60 0 87.5 6t80.5 35q-24 20 -51 53q-106 129 -117 311l21 389h-332l-20 -305v-39q0 -157 90 -305q92 -145 241 -145zM1759 -522q0 -60 -30 -119q-72 -123 -213 -188q-41 -21 -125 -35q-86 -17 -174 -23q-89 -8 -156 -8q-127 0 -260 11.5t-273 49.5
q-137 39 -209 111q-40 41 -67 109q-29 63 -41 135q-16 82 -16 129v1847l-2 92l-23 49l-66 9l-73 -33l-25 28l189 91l172 75h47v-784h1788l-66 -160h-735l-21 -303q-2 -12 -2 -39q0 -84 25 -157q22 -76 67 -148q93 -145 242 -145q64 0 117 24q51 25 86 88q20 43 20 162
q117 41 185 74q0 -60 -4 -92q-7 -35 -29 -74q-64 -125 -186 -188q-64 -35 -117 -50q-55 -16 -123 -16q-162 0 -277 72q-127 -72 -274 -72q-59 0 -123 14q-63 15 -129 49q-65 35 -123 97q-102 123 -112 317l20 387h-229v-1202q0 -96 28 -178q27 -86 80 -162
q101 -145 533 -145h65q43 0 135 10q91 8 123 16q129 39 152 86q39 54 39 113z" />
    <glyph glyph-name="divide" unicode="&#xf7;" horiz-adv-x="1126" 
d="M1059 -330q0 -78 -17 -162q-16 -88 -36 -126q-64 -130 -205 -197q-127 -59 -299 -59q-154 0 -283 40q-131 41 -156 119q7 35 37 62q29 24 68 24q41 0 78 -37q18 -57 114 -98q97 -39 199 -39q180 0 242 98q24 54 33 130q6 69 6 245v1827l-2 92l-23 49l-65 9l-72 -33
l-27 28l189 91l174 75h45v-2138z" />
    <glyph glyph-name="oslash" unicode="&#xf8;" horiz-adv-x="1741" 
d="M834 199h516q80 98 80 260q0 215 -121 338q-103 102 -246 104q-121 0 -229 -98v-604zM274 -782q76 -45 136 -45q59 0 96 34q33 33 65 88q27 50 33 131.5t6 254.5v329v1512l-2 94l-20 49l-68 8l-71 -33l-25 29l186 92l172 76h45v-971q99 90 170 119q82 33 185 33
q198 0 340 -137q145 -129 145 -320q0 -65 -14 -131q-17 -63 -45 -123q-29 -57 -74 -108h211l-191 -199h-723v-330q0 -78 -16 -162q-14 -86 -37 -126q-37 -76 -73 -123q-37 -50 -107 -90q-35 -21 -51 -31q-21 -10 -37 -17q-16 -6 -53 -8q-39 -2 -84 -2q-90 0 -209 49
q-121 49 -144 125q7 35 37 62q29 24 66 24q41 0 78 -37q6 -26 10 -45q4 -18 16 -37q15 -18 47 -34z" />
    <glyph glyph-name="ugrave" unicode="&#xf9;" horiz-adv-x="2355" 
d="M1341 172q82 98 82 272q0 213 -118 332q-103 103 -246 103q-121 0 -232 -95v-612h514zM1944 172q90 111 90 277q0 213 -121 331q-103 103 -246 103q-70 0 -135 -33q133 -129 133 -322q0 -198 -143 -356h422zM831 -330q0 -78 -16 -162q-14 -86 -37 -126q-37 -76 -73 -123
q-37 -50 -107 -90q-35 -21 -51 -31q-21 -10 -37 -17q-16 -6 -53 -8q-39 -2 -84 -2q-90 0 -209 49q-121 49 -144 125q7 35 37 62q29 24 66 24q41 0 78 -37q6 -26 10 -45q4 -18 16 -37q15 -18 47 -34q76 -45 136 -45q59 0 96 34q33 33 65 88q27 50 33 131.5t6 254.5v319v1507
l-2 92l-20 50l-68 8l-71 -33l-25 29l186 90l172 76h45v-961q82 70 164 103q82 34 185 34q172 0 303 -100q55 43 123 70q81 34 184 34q199 0 342 -135q145 -133 145 -332q0 -100 -39 -184q-41 -84 -120 -172h239l-153 -176h-1369v-330z" />
    <glyph glyph-name="uacute" unicode="&#xfa;" horiz-adv-x="1178" 
d="M106 1520q58 98 134 170q77 71 168 110q88 39 178 39q112 0 215 -63q100 -64 180 -199t125 -356q47 -222 47 -519q0 -116 -4 -206q0 -50 -21 -119q-18 -74 -53 -131q-71 -125 -203 -189q-127 -65 -286 -65q-258 0 -412 166q-127 139 -127 311q0 127 76 252q8 10 35 37
q24 24 55 47q31 20 78 37q47 14 110 14q-86 -37 -112 -98q-29 -62 -31 -150v-59q4 -53 21 -115q14 -61 39.5 -121.5t60.5 -103.5q27 -33 72 -66q45 -32 94 -53q49 -20 96 -27q68 0 115 21q45 20 84 59q47 47 68.5 123t21.5 152q12 143 12 284q0 224 -33 410q-32 186 -94 320
q-61 133 -145 204q-84 72 -185 72q-176 0 -362 -221z" />
    <glyph glyph-name="ucircumflex" unicode="&#xfb;" horiz-adv-x="1178" 
d="M1149 496q0 -47 -21 -119q-18 -74 -53 -131q-39 -66 -94 -115q82 -111 125 -250q43 -137 43 -307q0 -49 -21 -121q-20 -71 -55 -129q-69 -125 -201 -188q-127 -66 -286 -66q-133 0 -234 37q-102 39 -178 119q-70 78 -98 139q-29 62 -29 141q0 127 76 252q8 11 35 37
q24 25 55 46.5t78 37t110 15.5q-86 -35 -112 -97q-29 -61 -31 -149v-62q4 -53 21 -114q8 -39 40 -111q7 -16 19 -33q8 -14 18 -24q11 -13 23 -27q20 -22 41 -37q20 -14 80 -47q75 -43 141 -51q68 0 115 20q45 21 84 60q47 47 69 123q21 73 21 151q0 96 -17 180
q-16 84 -51 168q-35 86 -88 174q-88 -26 -188 -26q-258 0 -412 166q-127 139 -127 311q0 127 76 252q8 10 35 37q24 24 55 47q31 20 78 37q47 14 110 14q-86 -37 -112 -98q-29 -62 -31 -150v-59q4 -53 21 -115q14 -61 39.5 -121.5t60.5 -103.5q27 -33 72 -66q45 -32 94 -53
q49 -20 96 -27q68 0 115 21q45 20 84 59q47 47 68.5 123t21.5 152q12 143 12 284q0 224 -33 410q-32 186 -94 320q-61 133 -145 204q-84 72 -185 72q-176 0 -362 -221l-17 33q58 98 134 170q77 71 168 110q88 39 178 39q112 0 215 -63q100 -64 180 -199t125 -356
q47 -222 47 -519q0 -116 -4 -206z" />
    <glyph glyph-name="udieresis" unicode="&#xfc;" 
d="M-1028 -823v606l209 94v-590z" />
    <glyph glyph-name="yacute" unicode="&#xfd;" 
d="M-651 -823v606l209 94v-590z" />
    <glyph glyph-name="thorn" unicode="&#xfe;" 
d="M-492 -823v606l209 94v-590z" />
    <glyph glyph-name="ydieresis" unicode="&#xff;" 
d="M-315 -823v606l209 94v-590z" />
    <glyph glyph-name="u009E" horiz-adv-x="1331" 
d="M852 307q-32 -121 -83.5 -180t-106.5 -59q-65 0 -118.5 68t-68.5 171q-110 121 -110 215q0 54 38 93t100 58t134 19q83 0 155.5 -22.5t119 -66t46.5 -103.5q0 -90 -106 -193zM561 541q-30 -1 -46.5 -17.5t-16.5 -40.5q0 -20 14.5 -35t40.5 -14q33 1 51.5 18t18.5 37
t-16 34.5t-46 17.5zM762 537q-30 -1 -47 -17.5t-17 -40.5q0 -20 15 -35t41 -14q34 1 51.5 17.5t17.5 37.5q0 18 -16.5 33.5t-44.5 18.5zM659 406q-29 -1 -46 -18t-17 -40q0 -20 14.5 -35t40.5 -14q33 1 51.5 18t18.5 37q0 18 -17 33.5t-45 18.5zM53 705l37 57q3 31 18.5 49
t34.5 18q45 0 45 -79l197 -95q-61 -27 -61 -102l-193 94q-34 -33 -65 -33q-19 0 -30 11t-11 28q0 28 28 52zM1198 788l31 -61q37 -26 37 -57q0 -19 -13 -32t-32 -13q-26 0 -52 22l-180 -123q0 43 -13.5 66t-43.5 39l178 121q-4 12 -4 34q0 29 12.5 44.5t30.5 15.5
q16 0 30.5 -14.5t18.5 -41.5zM438 266l-209 -131q4 -12 4 -35q0 -28 -12.5 -43.5t-30.5 -15.5q-40 0 -49 55l-30 62q-37 25 -37 57q0 18 12.5 31.5t32.5 13.5q26 0 51 -22l197 127zM958 375l195 -117q32 27 64 27q20 0 31.5 -10.5t11.5 -28.5q0 -27 -33 -51l-43 -54
q-4 -31 -21 -46t-35 -15q-16 0 -30.5 14.5t-14.5 38.5q0 19 4 29l-206 121z" />
  </font>
</defs>
</svg>
